0
SECTION
2
HEADER
9
$INSUNITS
70
4
0
ENDSEC
0
SECTION
2
TABLES
0
TABLE
2
LTYPE
0
LTYPE
72
65
70
64
2
CONTINUOUS
3
______
73
0
40
0
0
ENDTAB
0
TABLE
2
LAYER
0
ENDTAB
0
ENDSEC
0
SECTION
2
ENTITIES
0
LINE
8
0
10
96.6775043
20
-149.4493879
11
46.6331283
21
-136.0400377
0
LINE
8
0
10
45.2189146
20
-133.590548
11
54.2775812
21
-99.7831441
0
LINE
8
0
10
56.7270709
20
-98.3689304
11
163.7044773
21
-127.03344
0
LINE
8
0
10
165.1790432
20
-128.788873
11
166.5657048
21
-144.4477086
0
LINE
8
0
10
168.5579087
20
-146.2712898
11
180.9765867
21
-146.2712898
0
LINE
8
0
10
182.9687906
20
-144.4477086
11
184.3554522
21
-128.788873
0
LINE
8
0
10
185.8300181
20
-127.03344
11
292.8074245
21
-98.3689304
0
LINE
8
0
10
295.2569142
20
-99.7831441
11
304.3155808
21
-133.590548
0
LINE
8
0
10
302.9013671
20
-136.0400377
11
252.8569911
21
-149.4493879
0
LINE
8
0
10
251.3910447
20
-151.1255188
11
247.5785821
21
-180.6981707
0
LINE
8
0
10
246.4402343
20
-182.2550654
11
193.965682
21
-206.724351
0
LINE
8
0
10
191.3078299
20
-205.7569721
11
181.5344193
21
-184.7978254
0
LINE
8
0
10
179.7218038
20
-183.643062
11
169.8126916
21
-183.643062
0
LINE
8
0
10
168.0000761
20
-184.7978254
11
158.2266655
21
-205.7569721
0
LINE
8
0
10
155.5688134
20
-206.724351
11
103.0942611
21
-182.2550654
0
LINE
8
0
10
101.9559133
20
-180.6981707
11
98.1434507
21
-151.1255188
0
ARC
8
0
10
47.1507663
20
-134.108186
40
2
50
165.0000021
51
255.0000021
0
ARC
8
0
10
56.2094329
20
-100.3007821
40
2
50
75.0000021
51
165.0000021
0
ARC
8
0
10
163.1868393
20
-128.9652917
40
2
50
5.0606033
51
75.0000021
0
ARC
8
0
10
168.5579087
20
-144.2712898
40
2
50
185.0606033
51
270
0
ARC
8
0
10
180.9765867
20
-144.2712898
40
2
50
270
51
354.9393967
0
ARC
8
0
10
186.3476561
20
-128.9652917
40
2
50
104.9999979
51
174.9393967
0
ARC
8
0
10
293.3250625
20
-100.3007821
40
2
50
14.9999979
51
104.9999979
0
ARC
8
0
10
302.3837291
20
-134.108186
40
2
50
284.9999979
51
14.9999979
0
ARC
8
0
10
253.3746291
20
-151.3812396
40
2
50
104.9999979
51
172.6540297
0
ARC
8
0
10
245.5949977
20
-180.4424499
40
2
50
295.0000017
51
352.6540297
0
ARC
8
0
10
193.1204455
20
-204.9117355
40
2
50
205.0000017
51
295.0000017
0
ARC
8
0
10
179.7218038
20
-185.643062
40
2
50
25.0000017
51
90
0
ARC
8
0
10
169.8126916
20
-185.643062
40
2
50
90
51
154.9999983
0
ARC
8
0
10
156.4140499
20
-204.9117355
40
2
50
244.9999983
51
334.9999983
0
ARC
8
0
10
103.9394977
20
-180.4424499
40
2
50
187.3459703
51
244.9999983
0
ARC
8
0
10
96.1598663
20
-151.3812396
40
2
50
7.3459703
51
75.0000021
0
ENDSEC
0
EOF