0
SECTION
2
HEADER
9
$INSUNITS
70
4
0
ENDSEC
0
SECTION
2
TABLES
0
TABLE
2
LTYPE
0
LTYPE
72
65
70
64
2
CONTINUOUS
3
______
73
0
40
0
0
ENDTAB
0
TABLE
2
LAYER
0
ENDTAB
0
ENDSEC
0
SECTION
2
ENTITIES
0
LINE
8
0
10
50.1460654
20
-134.1343168
11
65.1179158
21
-138.1460121
0
LINE
8
0
10
66.3426606
20
-137.4389053
11
70.0955368
21
-123.4329808
0
LINE
8
0
10
69.38843
20
-122.208236
11
54.4165796
21
-118.1965407
0
LINE
8
0
10
53.1918348
20
-118.9036475
11
49.4389586
21
-132.909572
0
LINE
8
0
10
54.5459892
20
-117.7135777
11
69.5178396
21
-121.725273
0
LINE
8
0
10
70.7425844
20
-121.0181662
11
74.4954606
21
-107.0122417
0
LINE
8
0
10
73.7883538
20
-105.7874969
11
58.8165034
21
-101.7758016
0
LINE
8
0
10
57.5917586
20
-102.4829084
11
53.8388824
21
-116.4888329
0
LINE
8
0
10
67.5327304
20
-138.7930596
11
82.5045808
21
-142.8047549
0
LINE
8
0
10
83.7293256
20
-142.0976481
11
87.4822018
21
-128.0917236
0
LINE
8
0
10
86.775095
20
-126.8669788
11
71.8032446
21
-122.8552835
0
LINE
8
0
10
70.5784998
20
-123.5623903
11
66.8256236
21
-137.5683148
0
LINE
8
0
10
71.9326542
20
-122.3723205
11
86.9045046
21
-126.3840158
0
LINE
8
0
10
88.1292494
20
-125.676909
11
91.8821256
21
-111.6709845
0
LINE
8
0
10
91.1750188
20
-110.4462397
11
76.2031684
21
-106.4345444
0
LINE
8
0
10
74.9784236
20
-107.1416512
11
71.2255474
21
-121.1475757
0
LINE
8
0
10
84.9193951
20
-143.4518025
11
99.8912455
21
-147.4634978
0
LINE
8
0
10
101.1159903
20
-146.756391
11
104.8688665
21
-132.7504665
0
LINE
8
0
10
104.1617597
20
-131.5257217
11
89.1899093
21
-127.5140264
0
LINE
8
0
10
87.9651645
20
-128.2211332
11
84.2122883
21
-142.2270577
0
LINE
8
0
10
89.319319
20
-127.0310634
11
104.2911694
21
-131.0427587
0
LINE
8
0
10
105.5159142
20
-130.3356519
11
109.2687904
21
-116.3297274
0
LINE
8
0
10
108.5616836
20
-115.1049826
11
93.5898332
21
-111.0932873
0
LINE
8
0
10
92.3650884
20
-111.8003941
11
88.6122122
21
-125.8063186
0
LINE
8
0
10
102.3060601
20
-148.1105453
11
117.2779105
21
-152.1222406
0
LINE
8
0
10
118.5026553
20
-151.4151338
11
122.2555315
21
-137.4092093
0
LINE
8
0
10
121.5484247
20
-136.1844645
11
106.5765743
21
-132.1727692
0
LINE
8
0
10
105.3518295
20
-132.879876
11
101.5989533
21
-146.8858005
0
LINE
8
0
10
106.7059839
20
-131.6898062
11
121.6778343
21
-135.7015015
0
LINE
8
0
10
122.9025791
20
-134.9943947
11
126.6554553
21
-120.9884702
0
LINE
8
0
10
125.9483485
20
-119.7637254
11
110.9764981
21
-115.7520301
0
LINE
8
0
10
109.7517533
20
-116.4591369
11
105.9988771
21
-130.4650614
0
LINE
8
0
10
119.692725
20
-152.7692881
11
134.6645754
21
-156.7809834
0
LINE
8
0
10
135.8893202
20
-156.0738766
11
139.6421964
21
-142.0679521
0
LINE
8
0
10
138.9350896
20
-140.8432073
11
123.9632392
21
-136.831512
0
LINE
8
0
10
122.7384944
20
-137.5386188
11
118.9856182
21
-151.5445433
0
LINE
8
0
10
124.0926488
20
-136.348549
11
139.0644992
21
-140.3602443
0
LINE
8
0
10
140.289244
20
-139.6531375
11
144.0421202
21
-125.647213
0
LINE
8
0
10
143.3350134
20
-124.4224682
11
128.363163
21
-120.4107729
0
LINE
8
0
10
127.1384182
20
-121.1178797
11
123.385542
21
-135.1238042
0
LINE
8
0
10
137.0793898
20
-157.4280309
11
152.0512402
21
-161.4397262
0
LINE
8
0
10
153.275985
20
-160.7326194
11
157.0288612
21
-146.7266949
0
LINE
8
0
10
156.3217544
20
-145.5019501
11
141.349904
21
-141.4902548
0
LINE
8
0
10
140.1251592
20
-142.1973616
11
136.372283
21
-156.2032861
0
LINE
8
0
10
141.4793136
20
-141.0072918
11
156.451164
21
-145.0189871
0
LINE
8
0
10
157.6759088
20
-144.3118803
11
161.428785
21
-130.3059558
0
LINE
8
0
10
160.7216782
20
-129.081211
11
145.7498278
21
-125.0695157
0
LINE
8
0
10
144.525083
20
-125.7766225
11
140.7722068
21
-139.782547
0
LINE
8
0
10
106.6575084
20
-180.8823458
11
120.7052791
21
-187.4329287
0
LINE
8
0
10
122.0342052
20
-186.9492392
11
128.1621699
21
-173.8077763
0
LINE
8
0
10
127.6784804
20
-172.4788502
11
113.6307097
21
-165.9282673
0
LINE
8
0
10
112.3017836
20
-166.4119568
11
106.1738189
21
-179.5534197
0
LINE
8
0
10
123.8773564
20
-188.9120927
11
137.9251271
21
-195.4626756
0
LINE
8
0
10
139.2540532
20
-194.9789861
11
145.3820179
21
-181.8375232
0
LINE
8
0
10
144.8983284
20
-180.5085971
11
130.8505577
21
-173.9580142
0
LINE
8
0
10
129.5216316
20
-174.4417037
11
123.3936669
21
-187.5831666
0
LINE
8
0
10
141.0972043
20
-196.9418397
11
155.144975
21
-203.4924226
0
LINE
8
0
10
156.4739011
20
-203.0087331
11
162.6018658
21
-189.8672702
0
LINE
8
0
10
162.1181763
20
-188.5383441
11
148.0704056
21
-181.9877612
0
LINE
8
0
10
146.7414795
20
-182.4714507
11
140.6135148
21
-195.6129136
0
LINE
8
0
10
284.4165796
20
-138.1460121
11
299.38843
21
-134.1343168
0
LINE
8
0
10
300.0955368
20
-132.909572
11
296.3426606
21
-118.9036475
0
LINE
8
0
10
295.1179158
20
-118.1965407
11
280.1460654
21
-122.208236
0
LINE
8
0
10
279.4389586
20
-123.4329808
11
283.1918348
21
-137.4389053
0
LINE
8
0
10
280.0166558
20
-121.725273
11
294.9885062
21
-117.7135777
0
LINE
8
0
10
295.695613
20
-116.4888329
11
291.9427368
21
-102.4829084
0
LINE
8
0
10
290.717992
20
-101.7758016
11
275.7461416
21
-105.7874969
0
LINE
8
0
10
275.0390348
20
-107.0122417
11
278.791911
21
-121.0181662
0
LINE
8
0
10
267.0299146
20
-142.8047549
11
282.001765
21
-138.7930596
0
LINE
8
0
10
282.7088718
20
-137.5683148
11
278.9559956
21
-123.5623903
0
LINE
8
0
10
277.7312508
20
-122.8552835
11
262.7594004
21
-126.8669788
0
LINE
8
0
10
262.0522936
20
-128.0917236
11
265.8051698
21
-142.0976481
0
LINE
8
0
10
262.6299908
20
-126.3840158
11
277.6018412
21
-122.3723205
0
LINE
8
0
10
278.308948
20
-121.1475757
11
274.5560718
21
-107.1416512
0
LINE
8
0
10
273.331327
20
-106.4345444
11
258.3594766
21
-110.4462397
0
LINE
8
0
10
257.6523698
20
-111.6709845
11
261.405246
21
-125.676909
0
LINE
8
0
10
249.6432499
20
-147.4634978
11
264.6151003
21
-143.4518025
0
LINE
8
0
10
265.3222071
20
-142.2270577
11
261.5693309
21
-128.2211332
0
LINE
8
0
10
260.3445861
20
-127.5140264
11
245.3727357
21
-131.5257217
0
LINE
8
0
10
244.6656289
20
-132.7504665
11
248.4185051
21
-146.756391
0
LINE
8
0
10
245.243326
20
-131.0427587
11
260.2151764
21
-127.0310634
0
LINE
8
0
10
260.9222832
20
-125.8063186
11
257.169407
21
-111.8003941
0
LINE
8
0
10
255.9446622
20
-111.0932873
11
240.9728118
21
-115.1049826
0
LINE
8
0
10
240.265705
20
-116.3297274
11
244.0185812
21
-130.3356519
0
LINE
8
0
10
232.2565849
20
-152.1222406
11
247.2284353
21
-148.1105453
0
LINE
8
0
10
247.9355421
20
-146.8858005
11
244.1826659
21
-132.879876
0
LINE
8
0
10
242.9579211
20
-132.1727692
11
227.9860707
21
-136.1844645
0
LINE
8
0
10
227.2789639
20
-137.4092093
11
231.0318401
21
-151.4151338
0
LINE
8
0
10
227.8566611
20
-135.7015015
11
242.8285115
21
-131.6898062
0
LINE
8
0
10
243.5356183
20
-130.4650614
11
239.7827421
21
-116.4591369
0
LINE
8
0
10
238.5579973
20
-115.7520301
11
223.5861469
21
-119.7637254
0
LINE
8
0
10
222.8790401
20
-120.9884702
11
226.6319163
21
-134.9943947
0
LINE
8
0
10
214.86992
20
-156.7809834
11
229.8417704
21
-152.7692881
0
LINE
8
0
10
230.5488772
20
-151.5445433
11
226.796001
21
-137.5386188
0
LINE
8
0
10
225.5712562
20
-136.831512
11
210.5994058
21
-140.8432073
0
LINE
8
0
10
209.892299
20
-142.0679521
11
213.6451752
21
-156.0738766
0
LINE
8
0
10
210.4699962
20
-140.3602443
11
225.4418466
21
-136.348549
0
LINE
8
0
10
226.1489534
20
-135.1238042
11
222.3960772
21
-121.1178797
0
LINE
8
0
10
221.1713324
20
-120.4107729
11
206.199482
21
-124.4224682
0
LINE
8
0
10
205.4923752
20
-125.647213
11
209.2452514
21
-139.6531375
0
LINE
8
0
10
197.4832552
20
-161.4397262
11
212.4551056
21
-157.4280309
0
LINE
8
0
10
213.1622124
20
-156.2032861
11
209.4093362
21
-142.1973616
0
LINE
8
0
10
208.1845914
20
-141.4902548
11
193.212741
21
-145.5019501
0
LINE
8
0
10
192.5056342
20
-146.7266949
11
196.2585104
21
-160.7326194
0
LINE
8
0
10
193.0833314
20
-145.0189871
11
208.0551818
21
-141.0072918
0
LINE
8
0
10
208.7622886
20
-139.782547
11
205.0094124
21
-125.7766225
0
LINE
8
0
10
203.7846676
20
-125.0695157
11
188.8128172
21
-129.081211
0
LINE
8
0
10
188.1057104
20
-130.3059558
11
191.8585866
21
-144.3118803
0
LINE
8
0
10
228.8292163
20
-187.4329287
11
242.876987
21
-180.8823458
0
LINE
8
0
10
243.3606765
20
-179.5534197
11
237.2327118
21
-166.4119568
0
LINE
8
0
10
235.9037857
20
-165.9282673
11
221.856015
21
-172.4788502
0
LINE
8
0
10
221.3723255
20
-173.8077763
11
227.5002902
21
-186.9492392
0
LINE
8
0
10
211.6093683
20
-195.4626756
11
225.657139
21
-188.9120927
0
LINE
8
0
10
226.1408285
20
-187.5831666
11
220.0128638
21
-174.4417037
0
LINE
8
0
10
218.6839377
20
-173.9580142
11
204.636167
21
-180.5085971
0
LINE
8
0
10
204.1524775
20
-181.8375232
11
210.2804422
21
-194.9789861
0
LINE
8
0
10
194.3895204
20
-203.4924226
11
208.4372911
21
-196.9418397
0
LINE
8
0
10
208.9209806
20
-195.6129136
11
202.7930159
21
-182.4714507
0
LINE
8
0
10
201.4640898
20
-181.9877612
11
187.4163191
21
-188.5383441
0
LINE
8
0
10
186.9326296
20
-189.8672702
11
193.0605943
21
-203.0087331
0
ARC
8
0
10
299.129611
20
-133.168391
40
1
50
284.9999979
51
14.9999979
0
ARC
8
0
10
295.3767348
20
-119.1624665
40
1
50
14.9999979
51
104.9999979
0
ARC
8
0
10
280.4048844
20
-123.1741618
40
1
50
104.9999979
51
194.9999979
0
ARC
8
0
10
284.1577606
20
-137.1800863
40
1
50
194.9999979
51
284.9999979
0
ARC
8
0
10
294.7296872
20
-116.7476519
40
1
50
284.9999979
51
14.9999979
0
ARC
8
0
10
290.976811
20
-102.7417274
40
1
50
14.9999979
51
104.9999979
0
ARC
8
0
10
276.0049606
20
-106.7534227
40
1
50
104.9999979
51
194.9999979
0
ARC
8
0
10
279.7578368
20
-120.7593472
40
1
50
194.9999979
51
284.9999979
0
ARC
8
0
10
277.3430222
20
-121.4063947
40
1
50
284.9999979
51
14.9999979
0
ARC
8
0
10
273.590146
20
-107.4004702
40
1
50
14.9999979
51
104.9999979
0
ARC
8
0
10
258.6182956
20
-111.4121655
40
1
50
104.9999979
51
194.9999979
0
ARC
8
0
10
262.3711718
20
-125.41809
40
1
50
194.9999979
51
284.9999979
0
ARC
8
0
10
65.3767348
20
-137.1800863
40
1
50
255.0000021
51
345.0000021
0
ARC
8
0
10
69.129611
20
-123.1741618
40
1
50
345.0000021
51
75.0000021
0
ARC
8
0
10
54.1577606
20
-119.1624665
40
1
50
75.0000021
51
165.0000021
0
ARC
8
0
10
50.4048844
20
-133.168391
40
1
50
165.0000021
51
255.0000021
0
ARC
8
0
10
117.5367295
20
-151.1563148
40
1
50
255.0000021
51
345.0000021
0
ARC
8
0
10
121.2896057
20
-137.1503903
40
1
50
345.0000021
51
75.0000021
0
ARC
8
0
10
106.3177553
20
-133.138695
40
1
50
75.0000021
51
165.0000021
0
ARC
8
0
10
102.5648791
20
-147.1446195
40
1
50
165.0000021
51
255.0000021
0
ARC
8
0
10
281.742946
20
-137.8271338
40
1
50
284.9999979
51
14.9999979
0
ARC
8
0
10
277.9900698
20
-123.8212093
40
1
50
14.9999979
51
104.9999979
0
ARC
8
0
10
263.0182194
20
-127.8329046
40
1
50
104.9999979
51
194.9999979
0
ARC
8
0
10
266.7710956
20
-141.8388291
40
1
50
194.9999979
51
284.9999979
0
ARC
8
0
10
259.9563574
20
-126.0651376
40
1
50
284.9999979
51
14.9999979
0
ARC
8
0
10
256.2034812
20
-112.0592131
40
1
50
14.9999979
51
104.9999979
0
ARC
8
0
10
241.2316308
20
-116.0709084
40
1
50
104.9999979
51
194.9999979
0
ARC
8
0
10
244.984507
20
-130.0768329
40
1
50
194.9999979
51
284.9999979
0
ARC
8
0
10
242.5696925
20
-130.7238804
40
1
50
284.9999979
51
14.9999979
0
ARC
8
0
10
238.8168163
20
-116.7179559
40
1
50
14.9999979
51
104.9999979
0
ARC
8
0
10
223.8449659
20
-120.7296512
40
1
50
104.9999979
51
194.9999979
0
ARC
8
0
10
227.5978421
20
-134.7355757
40
1
50
194.9999979
51
284.9999979
0
ARC
8
0
10
87.1633236
20
-125.41809
40
1
50
255.0000021
51
345.0000021
0
ARC
8
0
10
90.9161998
20
-111.4121655
40
1
50
345.0000021
51
75.0000021
0
ARC
8
0
10
75.9443494
20
-107.4004702
40
1
50
75.0000021
51
165.0000021
0
ARC
8
0
10
72.1914732
20
-121.4063947
40
1
50
165.0000021
51
255.0000021
0
ARC
8
0
10
104.5499884
20
-130.0768329
40
1
50
255.0000021
51
345.0000021
0
ARC
8
0
10
108.3028646
20
-116.0709084
40
1
50
345.0000021
51
75.0000021
0
ARC
8
0
10
93.3310142
20
-112.0592131
40
1
50
75.0000021
51
165.0000021
0
ARC
8
0
10
89.578138
20
-126.0651376
40
1
50
165.0000021
51
255.0000021
0
ARC
8
0
10
121.9366533
20
-134.7355757
40
1
50
255.0000021
51
345.0000021
0
ARC
8
0
10
125.6895295
20
-120.7296512
40
1
50
345.0000021
51
75.0000021
0
ARC
8
0
10
110.7176791
20
-116.7179559
40
1
50
75.0000021
51
165.0000021
0
ARC
8
0
10
106.9648029
20
-130.7238804
40
1
50
165.0000021
51
255.0000021
0
ARC
8
0
10
152.3100592
20
-160.4738004
40
1
50
255.0000021
51
345.0000021
0
ARC
8
0
10
156.0629354
20
-146.4678759
40
1
50
345.0000021
51
75.0000021
0
ARC
8
0
10
141.091085
20
-142.4561806
40
1
50
75.0000021
51
165.0000021
0
ARC
8
0
10
137.3382088
20
-156.4621051
40
1
50
165.0000021
51
255.0000021
0
ARC
8
0
10
246.9696163
20
-147.1446195
40
1
50
284.9999979
51
14.9999979
0
ARC
8
0
10
243.2167401
20
-133.138695
40
1
50
14.9999979
51
104.9999979
0
ARC
8
0
10
228.2448897
20
-137.1503903
40
1
50
104.9999979
51
194.9999979
0
ARC
8
0
10
231.9977659
20
-151.1563148
40
1
50
194.9999979
51
284.9999979
0
ARC
8
0
10
212.1962866
20
-156.4621051
40
1
50
284.9999979
51
14.9999979
0
ARC
8
0
10
208.4434104
20
-142.4561806
40
1
50
14.9999979
51
104.9999979
0
ARC
8
0
10
193.47156
20
-146.4678759
40
1
50
104.9999979
51
194.9999979
0
ARC
8
0
10
197.2244362
20
-160.4738004
40
1
50
194.9999979
51
284.9999979
0
ARC
8
0
10
69.7766586
20
-120.7593472
40
1
50
255.0000021
51
345.0000021
0
ARC
8
0
10
73.5295348
20
-106.7534227
40
1
50
345.0000021
51
75.0000021
0
ARC
8
0
10
58.5576844
20
-102.7417274
40
1
50
75.0000021
51
165.0000021
0
ARC
8
0
10
54.8048082
20
-116.7476519
40
1
50
165.0000021
51
255.0000021
0
ARC
8
0
10
100.1500645
20
-146.497572
40
1
50
255.0000021
51
345.0000021
0
ARC
8
0
10
103.9029407
20
-132.4916475
40
1
50
345.0000021
51
75.0000021
0
ARC
8
0
10
88.9310903
20
-128.4799522
40
1
50
75.0000021
51
165.0000021
0
ARC
8
0
10
85.1782141
20
-142.4858767
40
1
50
165.0000021
51
255.0000021
0
ARC
8
0
10
156.709983
20
-144.0530613
40
1
50
255.0000021
51
345.0000021
0
ARC
8
0
10
160.4628592
20
-130.0471368
40
1
50
345.0000021
51
75.0000021
0
ARC
8
0
10
145.4910088
20
-126.0354415
40
1
50
75.0000021
51
165.0000021
0
ARC
8
0
10
141.7381326
20
-140.041366
40
1
50
165.0000021
51
255.0000021
0
ARC
8
0
10
264.3562813
20
-142.4858767
40
1
50
284.9999979
51
14.9999979
0
ARC
8
0
10
260.6034051
20
-128.4799522
40
1
50
14.9999979
51
104.9999979
0
ARC
8
0
10
245.6315547
20
-132.4916475
40
1
50
104.9999979
51
194.9999979
0
ARC
8
0
10
249.3844309
20
-146.497572
40
1
50
194.9999979
51
284.9999979
0
ARC
8
0
10
207.7963628
20
-140.041366
40
1
50
284.9999979
51
14.9999979
0
ARC
8
0
10
204.0434866
20
-126.0354415
40
1
50
14.9999979
51
104.9999979
0
ARC
8
0
10
189.0716362
20
-130.0471368
40
1
50
104.9999979
51
194.9999979
0
ARC
8
0
10
192.8245124
20
-144.0530613
40
1
50
194.9999979
51
284.9999979
0
ARC
8
0
10
82.7633998
20
-141.8388291
40
1
50
255.0000021
51
345.0000021
0
ARC
8
0
10
86.516276
20
-127.8329046
40
1
50
345.0000021
51
75.0000021
0
ARC
8
0
10
71.5444256
20
-123.8212093
40
1
50
75.0000021
51
165.0000021
0
ARC
8
0
10
67.7915494
20
-137.8271338
40
1
50
165.0000021
51
255.0000021
0
ARC
8
0
10
134.9233944
20
-155.8150576
40
1
50
255.0000021
51
345.0000021
0
ARC
8
0
10
138.6762706
20
-141.8091331
40
1
50
345.0000021
51
75.0000021
0
ARC
8
0
10
123.7044202
20
-137.7974378
40
1
50
75.0000021
51
165.0000021
0
ARC
8
0
10
119.951544
20
-151.8033623
40
1
50
165.0000021
51
255.0000021
0
ARC
8
0
10
139.3233182
20
-139.3943185
40
1
50
255.0000021
51
345.0000021
0
ARC
8
0
10
143.0761944
20
-125.388394
40
1
50
345.0000021
51
75.0000021
0
ARC
8
0
10
128.104344
20
-121.3766987
40
1
50
75.0000021
51
165.0000021
0
ARC
8
0
10
124.3514678
20
-135.3826232
40
1
50
165.0000021
51
255.0000021
0
ARC
8
0
10
229.5829514
20
-151.8033623
40
1
50
284.9999979
51
14.9999979
0
ARC
8
0
10
225.8300752
20
-137.7974378
40
1
50
14.9999979
51
104.9999979
0
ARC
8
0
10
210.8582248
20
-141.8091331
40
1
50
104.9999979
51
194.9999979
0
ARC
8
0
10
214.611101
20
-155.8150576
40
1
50
194.9999979
51
284.9999979
0
ARC
8
0
10
225.1830276
20
-135.3826232
40
1
50
284.9999979
51
14.9999979
0
ARC
8
0
10
221.4301514
20
-121.3766987
40
1
50
14.9999979
51
104.9999979
0
ARC
8
0
10
206.458301
20
-125.388394
40
1
50
104.9999979
51
194.9999979
0
ARC
8
0
10
210.2111772
20
-139.3943185
40
1
50
194.9999979
51
284.9999979
0
ARC
8
0
10
121.1278974
20
-186.5266209
40
1
50
244.9999983
51
334.9999983
0
ARC
8
0
10
127.2558621
20
-173.385158
40
1
50
334.9999983
51
64.9999983
0
ARC
8
0
10
113.2080914
20
-166.8345751
40
1
50
64.9999983
51
154.9999983
0
ARC
8
0
10
107.0801267
20
-179.976038
40
1
50
154.9999983
51
244.9999983
0
ARC
8
0
10
138.3477454
20
-194.5563678
40
1
50
244.9999983
51
334.9999983
0
ARC
8
0
10
144.4757101
20
-181.4149049
40
1
50
334.9999983
51
64.9999983
0
ARC
8
0
10
130.4279394
20
-174.864322
40
1
50
64.9999983
51
154.9999983
0
ARC
8
0
10
124.2999747
20
-188.0057849
40
1
50
154.9999983
51
244.9999983
0
ARC
8
0
10
155.5675933
20
-202.5861148
40
1
50
244.9999983
51
334.9999983
0
ARC
8
0
10
161.695558
20
-189.4446519
40
1
50
334.9999983
51
64.9999983
0
ARC
8
0
10
147.6477873
20
-182.894069
40
1
50
64.9999983
51
154.9999983
0
ARC
8
0
10
141.5198226
20
-196.0355319
40
1
50
154.9999983
51
244.9999983
0
ARC
8
0
10
242.4543687
20
-179.976038
40
1
50
295.0000017
51
25.0000017
0
ARC
8
0
10
236.326404
20
-166.8345751
40
1
50
25.0000017
51
115.0000017
0
ARC
8
0
10
222.2786333
20
-173.385158
40
1
50
115.0000017
51
205.0000017
0
ARC
8
0
10
228.406598
20
-186.5266209
40
1
50
205.0000017
51
295.0000017
0
ARC
8
0
10
225.2345207
20
-188.0057849
40
1
50
295.0000017
51
25.0000017
0
ARC
8
0
10
219.106556
20
-174.864322
40
1
50
25.0000017
51
115.0000017
0
ARC
8
0
10
205.0587853
20
-181.4149049
40
1
50
115.0000017
51
205.0000017
0
ARC
8
0
10
211.18675
20
-194.5563678
40
1
50
205.0000017
51
295.0000017
0
ARC
8
0
10
208.0146728
20
-196.0355319
40
1
50
295.0000017
51
25.0000017
0
ARC
8
0
10
201.8867081
20
-182.894069
40
1
50
25.0000017
51
115.0000017
0
ARC
8
0
10
187.8389374
20
-189.4446519
40
1
50
115.0000017
51
205.0000017
0
ARC
8
0
10
193.9669021
20
-202.5861148
40
1
50
205.0000017
51
295.0000017
0
ENDSEC
0
EOF