%TF.GenerationSoftware,KiCad,Pcbnew,8.0.1*%
%TF.CreationDate,2024-08-13T22:00:49-05:00*%
%TF.ProjectId,tonyverse,746f6e79-7665-4727-9365-2e6b69636164,v1.0.0*%
%TF.SameCoordinates,Original*%
%TF.FileFunction,Plated,1,2,PTH,Drill*%
%TF.FilePolarity,Positive*%
%FSLAX46Y46*%
G04 Gerber Fmt 4.6, Leading zero omitted, Abs format (unit mm)*
G04 Created by KiCad (PCBNEW 8.0.1) date 2024-08-13 22:00:49*
%MOMM*%
%LPD*%
G01*
G04 APERTURE LIST*
%TA.AperFunction,ComponentDrill*%
%ADD10C,0.990600*%
%TD*%
%TA.AperFunction,ComponentDrill*%
%ADD11C,1.092200*%
%TD*%
G04 APERTURE END LIST*
D10*
%TO.C,D1*%
X54792976Y-132014804D03*
%TO.C,D2*%
X59192899Y-115594064D03*
%TO.C,D1*%
X62153330Y-133987008D03*
%TO.C,D2*%
X66553253Y-117566268D03*
%TO.C,D3*%
X72179641Y-136673546D03*
%TO.C,D4*%
X76579564Y-120252807D03*
%TO.C,D3*%
X79539995Y-138645750D03*
%TO.C,D4*%
X83939918Y-122225011D03*
%TO.C,D5*%
X89566305Y-141332289D03*
%TO.C,D6*%
X93966229Y-124911550D03*
%TO.C,D5*%
X96926659Y-143304493D03*
%TO.C,D6*%
X101326583Y-126883754D03*
%TO.C,D7*%
X106952970Y-145991032D03*
%TO.C,D8*%
X111352894Y-129570293D03*
%TO.C,D13*%
X111601870Y-179601961D03*
%TO.C,D7*%
X114313324Y-147963236D03*
%TO.C,D13*%
X118507936Y-182822313D03*
%TO.C,D8*%
X118713248Y-131542497D03*
%TO.C,D9*%
X124339635Y-150649775D03*
%TO.C,D10*%
X128739559Y-134229036D03*
%TO.C,D14*%
X128821718Y-187631708D03*
%TO.C,D9*%
X131699989Y-152621979D03*
%TO.C,D14*%
X135727784Y-190852060D03*
%TO.C,D10*%
X136099913Y-136201240D03*
%TO.C,D11*%
X141726300Y-155308518D03*
%TO.C,D15*%
X146041566Y-195661455D03*
%TO.C,D12*%
X146126224Y-138887779D03*
%TO.C,D11*%
X149086654Y-157280722D03*
%TO.C,D15*%
X152947632Y-198881807D03*
%TO.C,D12*%
X153486578Y-140859983D03*
%TO.C,D27*%
X196047918Y-140859983D03*
%TO.C,D30*%
X196586863Y-198881807D03*
%TO.C,D26*%
X200447841Y-157280722D03*
%TO.C,D27*%
X203408272Y-138887779D03*
%TO.C,D30*%
X203492929Y-195661455D03*
%TO.C,D26*%
X207808195Y-155308518D03*
%TO.C,D25*%
X213434582Y-136201240D03*
%TO.C,D29*%
X213806711Y-190852060D03*
%TO.C,D24*%
X217834506Y-152621979D03*
%TO.C,D29*%
X220712777Y-187631708D03*
%TO.C,D25*%
X220794936Y-134229036D03*
%TO.C,D24*%
X225194860Y-150649775D03*
%TO.C,D23*%
X230821247Y-131542497D03*
%TO.C,D28*%
X231026559Y-182822313D03*
%TO.C,D22*%
X235221171Y-147963236D03*
%TO.C,D28*%
X237932625Y-179601961D03*
%TO.C,D23*%
X238181601Y-129570293D03*
%TO.C,D22*%
X242581525Y-145991032D03*
%TO.C,D21*%
X248207912Y-126883754D03*
%TO.C,D20*%
X252607836Y-143304493D03*
%TO.C,D21*%
X255568266Y-124911550D03*
%TO.C,D20*%
X259968190Y-141332289D03*
%TO.C,D19*%
X265594577Y-122225011D03*
%TO.C,D18*%
X269994501Y-138645750D03*
%TO.C,D19*%
X272954931Y-120252807D03*
%TO.C,D18*%
X277354855Y-136673546D03*
%TO.C,D17*%
X282981242Y-117566268D03*
%TO.C,D16*%
X287381166Y-133987008D03*
%TO.C,D17*%
X290341596Y-115594064D03*
%TO.C,D16*%
X294741520Y-132014804D03*
D11*
%TO.C,MCU1*%
X167527270Y-153037123D03*
X167527270Y-155577123D03*
X167527270Y-158117123D03*
X167527270Y-160657123D03*
X167527270Y-163197123D03*
X167527270Y-165737123D03*
X167527270Y-168277123D03*
X167527270Y-170817123D03*
X167527270Y-173357123D03*
X167527270Y-175897123D03*
X167527270Y-178437123D03*
X167527270Y-180977123D03*
X182767270Y-153037123D03*
X182767270Y-155577123D03*
X182767270Y-158117123D03*
X182767270Y-160657123D03*
X182767270Y-163197123D03*
X182767270Y-165737123D03*
X182767270Y-168277123D03*
X182767270Y-170817123D03*
X182767270Y-173357123D03*
X182767270Y-175897123D03*
X182767270Y-178437123D03*
X182767270Y-180977123D03*
M02*
