%TF.GenerationSoftware,KiCad,Pcbnew,8.0.1*%
%TF.CreationDate,2024-08-13T22:00:52-05:00*%
%TF.ProjectId,tonyverse,746f6e79-7665-4727-9365-2e6b69636164,v1.0.0*%
%TF.SameCoordinates,Original*%
%TF.FileFunction,Profile,NP*%
%FSLAX46Y46*%
G04 Gerber Fmt 4.6, Leading zero omitted, Abs format (unit mm)*
G04 Created by KiCad (PCBNEW 8.0.1) date 2024-08-13 22:00:52*
%MOMM*%
%LPD*%
G01*
G04 APERTURE LIST*
%TA.AperFunction,Profile*%
%ADD10C,0.150000*%
%TD*%
G04 APERTURE END LIST*
D10*
X168557909Y-146271290D02*
X180976587Y-146271290D01*
X103094261Y-182255066D02*
G75*
G02*
X101955953Y-180698166I845239J1812566D01*
G01*
X155568813Y-206724351D02*
X103094261Y-182255065D01*
X251391045Y-151125519D02*
X247578582Y-180698171D01*
X158226666Y-205756972D02*
G75*
G02*
X155568848Y-206724275I-1812566J845272D01*
G01*
X193965682Y-206724350D02*
G75*
G02*
X191307761Y-205757004I-845282J1812650D01*
G01*
X184355453Y-128788873D02*
G75*
G02*
X185830012Y-127033416I1992247J-176427D01*
G01*
X182968791Y-144447709D02*
X184355452Y-128788873D01*
X246440234Y-182255065D02*
X193965682Y-206724351D01*
X304315580Y-133590548D02*
G75*
G02*
X302901377Y-136040073I-1931880J-517652D01*
G01*
X302901367Y-136040038D02*
X252856991Y-149449388D01*
X168000077Y-184797825D02*
G75*
G02*
X169812692Y-183643077I1812623J-845275D01*
G01*
X56727071Y-98368930D02*
X163704477Y-127033440D01*
X101955913Y-180698171D02*
X98143451Y-151125519D01*
X96677504Y-149449389D02*
G75*
G02*
X98143441Y-151125520I-517604J-1931811D01*
G01*
X45218915Y-133590548D02*
X54277581Y-99783144D01*
X251391045Y-151125519D02*
G75*
G02*
X252856988Y-149449377I1983555J-255681D01*
G01*
X292807425Y-98368931D02*
G75*
G02*
X295256970Y-99783129I517675J-1931869D01*
G01*
X247578582Y-180698171D02*
G75*
G02*
X246440250Y-182255099I-1983582J255671D01*
G01*
X165179043Y-128788873D02*
X166565705Y-144447709D01*
X179721803Y-183643062D02*
G75*
G02*
X181534436Y-184797817I-3J-2000038D01*
G01*
X46633128Y-136040036D02*
G75*
G02*
X45218955Y-133590559I517672J1931836D01*
G01*
X168557909Y-146271290D02*
G75*
G02*
X166565705Y-144447709I-9J1999990D01*
G01*
X182968791Y-144447709D02*
G75*
G02*
X180976587Y-146271286I-1992191J176409D01*
G01*
X191307830Y-205756972D02*
X181534419Y-184797825D01*
X54277581Y-99783144D02*
G75*
G02*
X56727057Y-98368981I1931819J-517656D01*
G01*
X179721804Y-183643062D02*
X169812692Y-183643062D01*
X168000076Y-184797825D02*
X158226666Y-205756972D01*
X185830018Y-127033440D02*
X292807424Y-98368930D01*
X295256914Y-99783144D02*
X304315581Y-133590548D01*
X96677504Y-149449388D02*
X46633128Y-136040038D01*
X163704477Y-127033440D02*
G75*
G02*
X165179021Y-128788875I-517677J-1931860D01*
G01*
M02*
