%TF.GenerationSoftware,KiCad,Pcbnew,8.0.1*%
%TF.CreationDate,2024-08-13T22:00:52-05:00*%
%TF.ProjectId,tonyverse,746f6e79-7665-4727-9365-2e6b69636164,v1.0.0*%
%TF.SameCoordinates,Original*%
%TF.FileFunction,Soldermask,Top*%
%TF.FilePolarity,Negative*%
%FSLAX46Y46*%
G04 Gerber Fmt 4.6, Leading zero omitted, Abs format (unit mm)*
G04 Created by KiCad (PCBNEW 8.0.1) date 2024-08-13 22:00:52*
%MOMM*%
%LPD*%
G01*
G04 APERTURE LIST*
G04 Aperture macros list*
%AMRotRect*
0 Rectangle, with rotation*
0 The origin of the aperture is its center*
0 $1 length*
0 $2 width*
0 $3 Rotation angle, in degrees counterclockwise*
0 Add horizontal line*
21,1,$1,$2,0,0,$3*%
G04 Aperture macros list end*
%ADD10C,1.701800*%
%ADD11C,3.000000*%
%ADD12C,3.429000*%
%ADD13RotRect,1.800000X1.100000X255.000000*%
%ADD14RotRect,1.778000X1.778000X345.000000*%
%ADD15RotRect,0.900000X1.200000X345.000000*%
%ADD16C,1.905000*%
%ADD17RotRect,1.778000X1.778000X15.000000*%
%ADD18RotRect,0.900000X1.200000X15.000000*%
%ADD19RotRect,1.778000X1.778000X335.000000*%
%ADD20RotRect,0.900000X1.200000X335.000000*%
%ADD21RotRect,1.778000X1.778000X25.000000*%
%ADD22RotRect,0.900000X1.200000X25.000000*%
%ADD23R,1.752600X1.752600*%
%ADD24C,1.752600*%
G04 APERTURE END LIST*
D10*
%TO.C,S13*%
X112183301Y-174356198D03*
D11*
X119682573Y-171288067D03*
D12*
X117167994Y-176680598D03*
D11*
X123284351Y-175395035D03*
D10*
X122152687Y-179004998D03*
%TD*%
D13*
%TO.C,B1*%
X165179172Y-145287097D03*
X163574494Y-151275837D03*
X161605246Y-144329467D03*
X160000568Y-150318207D03*
%TD*%
D14*
%TO.C,D7*%
X106952970Y-145991032D03*
D15*
X109039369Y-146550084D03*
X112226925Y-147404184D03*
D16*
X114313324Y-147963236D03*
%TD*%
D10*
%TO.C,S16*%
X284454656Y-129594781D03*
D11*
X288227275Y-122424017D03*
D12*
X289767248Y-128171276D03*
D11*
X293626306Y-123254959D03*
D10*
X295079840Y-126747771D03*
%TD*%
D14*
%TO.C,D8*%
X111352894Y-129570293D03*
D15*
X113439293Y-130129345D03*
X116626849Y-130983445D03*
D16*
X118713248Y-131542497D03*
%TD*%
D17*
%TO.C,D24*%
X217834506Y-152621979D03*
D18*
X219920905Y-152062927D03*
X223108461Y-151208827D03*
D16*
X225194860Y-150649775D03*
%TD*%
D10*
%TO.C,S21*%
X245281402Y-122491528D03*
D11*
X249054021Y-115320764D03*
D12*
X250593994Y-121068023D03*
D11*
X254453052Y-116151706D03*
D10*
X255906586Y-119644518D03*
%TD*%
D19*
%TO.C,D15*%
X146041566Y-195661455D03*
D20*
X147999191Y-196574311D03*
X150990007Y-197968951D03*
D16*
X152947632Y-198881807D03*
%TD*%
D21*
%TO.C,D28*%
X231026559Y-182822313D03*
D22*
X232984184Y-181909457D03*
X235975000Y-180514817D03*
D16*
X237932625Y-179601961D03*
%TD*%
D10*
%TO.C,S4*%
X76241245Y-114985775D03*
D11*
X83093810Y-110662021D03*
D12*
X81553837Y-116409280D03*
D11*
X87354038Y-114081153D03*
D10*
X86866429Y-117832785D03*
%TD*%
D17*
%TO.C,D20*%
X252607836Y-143304493D03*
D18*
X254694235Y-142745441D03*
X257881791Y-141891341D03*
D16*
X259968190Y-141332289D03*
%TD*%
D10*
%TO.C,S10*%
X128401239Y-128962004D03*
D11*
X135253804Y-124638250D03*
D12*
X133713831Y-130385509D03*
D11*
X139514032Y-128057382D03*
D10*
X139026423Y-131809014D03*
%TD*%
D17*
%TO.C,D16*%
X287381166Y-133987008D03*
D18*
X289467565Y-133427956D03*
X292655121Y-132573856D03*
D16*
X294741520Y-132014804D03*
%TD*%
D19*
%TO.C,D14*%
X128821718Y-187631708D03*
D20*
X130779343Y-188544564D03*
X133770159Y-189939204D03*
D16*
X135727784Y-190852060D03*
%TD*%
D10*
%TO.C,S24*%
X214907996Y-148229753D03*
D11*
X218680615Y-141058989D03*
D12*
X220220588Y-146806248D03*
D11*
X224079646Y-141889931D03*
D10*
X225533180Y-145382743D03*
%TD*%
D16*
%TO.C,D1*%
X62153330Y-133987008D03*
D15*
X60066931Y-133427956D03*
X56879375Y-132573856D03*
D14*
X54792976Y-132014804D03*
%TD*%
D10*
%TO.C,S8*%
X111014574Y-124303261D03*
D11*
X117867139Y-119979507D03*
D12*
X116327166Y-125726766D03*
D11*
X122127367Y-123398639D03*
D10*
X121639758Y-127150271D03*
%TD*%
%TO.C,S27*%
X193121407Y-136467756D03*
D11*
X196894026Y-129296992D03*
D12*
X198433999Y-135044251D03*
D11*
X202293057Y-130127934D03*
D10*
X203746591Y-133620746D03*
%TD*%
%TO.C,S30*%
X192942112Y-195064492D03*
D11*
X195412226Y-187347561D03*
D12*
X197926805Y-192740092D03*
D11*
X200873525Y-187228346D03*
D10*
X202911498Y-190415692D03*
%TD*%
D17*
%TO.C,D18*%
X269994501Y-138645750D03*
D18*
X272080900Y-138086698D03*
X275268456Y-137232598D03*
D16*
X277354855Y-136673546D03*
%TD*%
D17*
%TO.C,D21*%
X248207912Y-126883754D03*
D18*
X250294311Y-126324702D03*
X253481867Y-125470602D03*
D16*
X255568266Y-124911550D03*
%TD*%
D10*
%TO.C,S15*%
X146622997Y-190415692D03*
D11*
X154122269Y-187347561D03*
D12*
X151607690Y-192740092D03*
D11*
X157724047Y-191454529D03*
D10*
X156592383Y-195064492D03*
%TD*%
%TO.C,S9*%
X124001315Y-145382743D03*
D11*
X130853880Y-141058989D03*
D12*
X129313907Y-146806248D03*
D11*
X135114108Y-144478121D03*
D10*
X134626499Y-148229753D03*
%TD*%
%TO.C,S6*%
X93627909Y-119644518D03*
D11*
X100480474Y-115320764D03*
D12*
X98940501Y-121068023D03*
D11*
X104740702Y-118739896D03*
D10*
X104253093Y-122491528D03*
%TD*%
D14*
%TO.C,D12*%
X146126224Y-138887779D03*
D15*
X148212623Y-139446831D03*
X151400179Y-140300931D03*
D16*
X153486578Y-140859983D03*
%TD*%
D17*
%TO.C,D27*%
X196047918Y-140859983D03*
D18*
X198134317Y-140300931D03*
X201321873Y-139446831D03*
D16*
X203408272Y-138887779D03*
%TD*%
D23*
%TO.C,MCU1*%
X167527270Y-153037123D03*
D24*
X167527270Y-155577123D03*
X167527270Y-158117123D03*
X167527270Y-160657123D03*
X167527270Y-163197123D03*
X167527270Y-165737123D03*
X167527270Y-168277123D03*
X167527270Y-170817123D03*
X167527270Y-173357123D03*
X167527270Y-175897123D03*
X167527270Y-178437123D03*
X167527270Y-180977123D03*
X182767270Y-153037123D03*
X182767270Y-155577123D03*
X182767270Y-158117123D03*
X182767270Y-160657123D03*
X182767270Y-163197123D03*
X182767270Y-165737123D03*
X182767270Y-168277123D03*
X182767270Y-170817123D03*
X182767270Y-173357123D03*
X182767270Y-175897123D03*
X182767270Y-178437123D03*
X182767270Y-180977123D03*
%TD*%
D10*
%TO.C,S11*%
X141387980Y-150041486D03*
D11*
X148240545Y-145717732D03*
D12*
X146700572Y-151464991D03*
D11*
X152500773Y-149136864D03*
D10*
X152013164Y-152888496D03*
%TD*%
%TO.C,S2*%
X58854579Y-110327032D03*
D11*
X65707144Y-106003278D03*
D12*
X64167171Y-111750537D03*
D11*
X69967372Y-109422410D03*
D10*
X69479763Y-113174042D03*
%TD*%
%TO.C,S7*%
X106614650Y-140724000D03*
D11*
X113467215Y-136400246D03*
D12*
X111927242Y-142147505D03*
D11*
X117727443Y-139819378D03*
D10*
X117239834Y-143571010D03*
%TD*%
%TO.C,S1*%
X54454656Y-126747771D03*
D11*
X61307221Y-122424017D03*
D12*
X59767248Y-128171276D03*
D11*
X65567449Y-125843149D03*
D10*
X65079840Y-129594781D03*
%TD*%
D17*
%TO.C,D26*%
X200447841Y-157280722D03*
D18*
X202534240Y-156721670D03*
X205721796Y-155867570D03*
D16*
X207808195Y-155308518D03*
%TD*%
D14*
%TO.C,D4*%
X76579564Y-120252807D03*
D15*
X78665963Y-120811859D03*
X81853519Y-121665959D03*
D16*
X83939918Y-122225011D03*
%TD*%
D10*
%TO.C,S26*%
X197521331Y-152888496D03*
D11*
X201293950Y-145717732D03*
D12*
X202833923Y-151464991D03*
D11*
X206692981Y-146548674D03*
D10*
X208146515Y-150041486D03*
%TD*%
%TO.C,S19*%
X262668067Y-117832785D03*
D11*
X266440686Y-110662021D03*
D12*
X267980659Y-116409280D03*
D11*
X271839717Y-111492963D03*
D10*
X273293251Y-114985775D03*
%TD*%
D17*
%TO.C,D17*%
X282981242Y-117566268D03*
D18*
X285067641Y-117007216D03*
X288255197Y-116153116D03*
D16*
X290341596Y-115594064D03*
%TD*%
D14*
%TO.C,D2*%
X59192899Y-115594064D03*
D15*
X61279298Y-116153116D03*
X64466854Y-117007216D03*
D16*
X66553253Y-117566268D03*
%TD*%
D14*
%TO.C,D3*%
X72179641Y-136673546D03*
D15*
X74266040Y-137232598D03*
X77453596Y-138086698D03*
D16*
X79539995Y-138645750D03*
%TD*%
D19*
%TO.C,D13*%
X111601870Y-179601961D03*
D20*
X113559495Y-180514817D03*
X116550311Y-181909457D03*
D16*
X118507936Y-182822313D03*
%TD*%
D10*
%TO.C,S5*%
X89227985Y-136065257D03*
D11*
X96080550Y-131741503D03*
D12*
X94540577Y-137488762D03*
D11*
X100340778Y-135160635D03*
D10*
X99853169Y-138912267D03*
%TD*%
%TO.C,S25*%
X210508072Y-131809014D03*
D11*
X214280691Y-124638250D03*
D12*
X215820664Y-130385509D03*
D11*
X219679722Y-125469192D03*
D10*
X221133256Y-128962004D03*
%TD*%
%TO.C,S14*%
X129403149Y-182385945D03*
D11*
X136902421Y-179317814D03*
D12*
X134387842Y-184710345D03*
D11*
X140504199Y-183424782D03*
D10*
X139372535Y-187034745D03*
%TD*%
D17*
%TO.C,D19*%
X265594577Y-122225011D03*
D18*
X267680976Y-121665959D03*
X270868532Y-120811859D03*
D16*
X272954931Y-120252807D03*
%TD*%
D17*
%TO.C,D23*%
X230821247Y-131542497D03*
D18*
X232907646Y-130983445D03*
X236095202Y-130129345D03*
D16*
X238181601Y-129570293D03*
%TD*%
D10*
%TO.C,S20*%
X249681326Y-138912267D03*
D11*
X253453945Y-131741503D03*
D12*
X254993918Y-137488762D03*
D11*
X258852976Y-132572445D03*
D10*
X260306510Y-136065257D03*
%TD*%
%TO.C,S22*%
X232294661Y-143571010D03*
D11*
X236067280Y-136400246D03*
D12*
X237607253Y-142147505D03*
D11*
X241466311Y-137231188D03*
D10*
X242919845Y-140724000D03*
%TD*%
%TO.C,S12*%
X145787904Y-133620746D03*
D11*
X152640469Y-129296992D03*
D12*
X151100496Y-135044251D03*
D11*
X156900697Y-132716124D03*
D10*
X156413088Y-136467756D03*
%TD*%
D14*
%TO.C,D10*%
X128739559Y-134229036D03*
D15*
X130825958Y-134788088D03*
X134013514Y-135642188D03*
D16*
X136099913Y-136201240D03*
%TD*%
D10*
%TO.C,S3*%
X71841321Y-131406514D03*
D11*
X78693886Y-127082760D03*
D12*
X77153913Y-132830019D03*
D11*
X82954114Y-130501892D03*
D10*
X82466505Y-134253524D03*
%TD*%
D17*
%TO.C,D25*%
X213434582Y-136201240D03*
D18*
X215520981Y-135642188D03*
X218708537Y-134788088D03*
D16*
X220794936Y-134229036D03*
%TD*%
D10*
%TO.C,S28*%
X227381808Y-179004998D03*
D11*
X229851922Y-171288067D03*
D12*
X232366501Y-176680598D03*
D11*
X235313221Y-171168852D03*
D10*
X237351194Y-174356198D03*
%TD*%
D21*
%TO.C,D30*%
X196586863Y-198881807D03*
D22*
X198544488Y-197968951D03*
X201535304Y-196574311D03*
D16*
X203492929Y-195661455D03*
%TD*%
D10*
%TO.C,S18*%
X267067991Y-134253524D03*
D11*
X270840610Y-127082760D03*
D12*
X272380583Y-132830019D03*
D11*
X276239641Y-127913702D03*
D10*
X277693175Y-131406514D03*
%TD*%
D14*
%TO.C,D5*%
X89566305Y-141332289D03*
D15*
X91652704Y-141891341D03*
X94840260Y-142745441D03*
D16*
X96926659Y-143304493D03*
%TD*%
D17*
%TO.C,D22*%
X235221171Y-147963236D03*
D18*
X237307570Y-147404184D03*
X240495126Y-146550084D03*
D16*
X242581525Y-145991032D03*
%TD*%
D10*
%TO.C,S17*%
X280054732Y-113174042D03*
D11*
X283827351Y-106003278D03*
D12*
X285367324Y-111750537D03*
D11*
X289226382Y-106834220D03*
D10*
X290679916Y-110327032D03*
%TD*%
D14*
%TO.C,D6*%
X93966229Y-124911550D03*
D15*
X96052628Y-125470602D03*
X99240184Y-126324702D03*
D16*
X101326583Y-126883754D03*
%TD*%
D21*
%TO.C,D29*%
X213806711Y-190852060D03*
D22*
X215764336Y-189939204D03*
X218755152Y-188544564D03*
D16*
X220712777Y-187631708D03*
%TD*%
D10*
%TO.C,S23*%
X227894737Y-127150271D03*
D11*
X231667356Y-119979507D03*
D12*
X233207329Y-125726766D03*
D11*
X237066387Y-120810449D03*
D10*
X238519921Y-124303261D03*
%TD*%
%TO.C,S29*%
X210161960Y-187034745D03*
D11*
X212632074Y-179317814D03*
D12*
X215146653Y-184710345D03*
D11*
X218093373Y-179198599D03*
D10*
X220131346Y-182385945D03*
%TD*%
D14*
%TO.C,D9*%
X124339635Y-150649775D03*
D15*
X126426034Y-151208827D03*
X129613590Y-152062927D03*
D16*
X131699989Y-152621979D03*
%TD*%
D14*
%TO.C,D11*%
X141726300Y-155308518D03*
D15*
X143812699Y-155867570D03*
X147000255Y-156721670D03*
D16*
X149086654Y-157280722D03*
%TD*%
M02*
