%TF.GenerationSoftware,KiCad,Pcbnew,8.0.1*%
%TF.CreationDate,2024-08-13T22:00:52-05:00*%
%TF.ProjectId,tonyverse,746f6e79-7665-4727-9365-2e6b69636164,v1.0.0*%
%TF.SameCoordinates,Original*%
%TF.FileFunction,Copper,L1,Top*%
%TF.FilePolarity,Positive*%
%FSLAX46Y46*%
G04 Gerber Fmt 4.6, Leading zero omitted, Abs format (unit mm)*
G04 Created by KiCad (PCBNEW 8.0.1) date 2024-08-13 22:00:52*
%MOMM*%
%LPD*%
G01*
G04 APERTURE LIST*
G04 Aperture macros list*
%AMRotRect*
0 Rectangle, with rotation*
0 The origin of the aperture is its center*
0 $1 length*
0 $2 width*
0 $3 Rotation angle, in degrees counterclockwise*
0 Add horizontal line*
21,1,$1,$2,0,0,$3*%
G04 Aperture macros list end*
%TA.AperFunction,SMDPad,CuDef*%
%ADD10RotRect,1.800000X1.100000X255.000000*%
%TD*%
%TA.AperFunction,ComponentPad*%
%ADD11RotRect,1.778000X1.778000X345.000000*%
%TD*%
%TA.AperFunction,SMDPad,CuDef*%
%ADD12RotRect,0.900000X1.200000X345.000000*%
%TD*%
%TA.AperFunction,ComponentPad*%
%ADD13C,1.905000*%
%TD*%
%TA.AperFunction,ComponentPad*%
%ADD14RotRect,1.778000X1.778000X15.000000*%
%TD*%
%TA.AperFunction,SMDPad,CuDef*%
%ADD15RotRect,0.900000X1.200000X15.000000*%
%TD*%
%TA.AperFunction,ComponentPad*%
%ADD16RotRect,1.778000X1.778000X335.000000*%
%TD*%
%TA.AperFunction,SMDPad,CuDef*%
%ADD17RotRect,0.900000X1.200000X335.000000*%
%TD*%
%TA.AperFunction,ComponentPad*%
%ADD18RotRect,1.778000X1.778000X25.000000*%
%TD*%
%TA.AperFunction,SMDPad,CuDef*%
%ADD19RotRect,0.900000X1.200000X25.000000*%
%TD*%
%TA.AperFunction,ComponentPad*%
%ADD20R,1.752600X1.752600*%
%TD*%
%TA.AperFunction,ComponentPad*%
%ADD21C,1.752600*%
%TD*%
%TA.AperFunction,Conductor*%
%ADD22C,0.200000*%
%TD*%
%TA.AperFunction,Conductor*%
%ADD23C,0.250000*%
%TD*%
G04 APERTURE END LIST*
D10*
%TO.P,B1,1*%
%TO.N,GND*%
X165179172Y-145287097D03*
X163574494Y-151275837D03*
%TO.P,B1,2*%
%TO.N,RST*%
X161605246Y-144329467D03*
X160000568Y-150318207D03*
%TD*%
D11*
%TO.P,D7,1*%
%TO.N,P20*%
X106952970Y-145991032D03*
D12*
X109039369Y-146550084D03*
%TO.P,D7,2*%
%TO.N,middle_bottom*%
X112226925Y-147404184D03*
D13*
X114313324Y-147963236D03*
%TD*%
D11*
%TO.P,D8,1*%
%TO.N,P21*%
X111352894Y-129570293D03*
D12*
X113439293Y-130129345D03*
%TO.P,D8,2*%
%TO.N,middle_top*%
X116626849Y-130983445D03*
D13*
X118713248Y-131542497D03*
%TD*%
D14*
%TO.P,D24,1*%
%TO.N,P0*%
X217834506Y-152621979D03*
D15*
X219920905Y-152062927D03*
%TO.P,D24,2*%
%TO.N,mirror_index_bottom*%
X223108461Y-151208827D03*
D13*
X225194860Y-150649775D03*
%TD*%
D16*
%TO.P,D15,1*%
%TO.N,P10*%
X146041566Y-195661455D03*
D17*
X147999191Y-196574311D03*
%TO.P,D15,2*%
%TO.N,far_thumb*%
X150990007Y-197968951D03*
D13*
X152947632Y-198881807D03*
%TD*%
D18*
%TO.P,D28,1*%
%TO.N,P9*%
X231026559Y-182822313D03*
D19*
X232984184Y-181909457D03*
%TO.P,D28,2*%
%TO.N,mirror_near_thumb*%
X235975000Y-180514817D03*
D13*
X237932625Y-179601961D03*
%TD*%
D14*
%TO.P,D20,1*%
%TO.N,P0*%
X252607836Y-143304493D03*
D15*
X254694235Y-142745441D03*
%TO.P,D20,2*%
%TO.N,mirror_better_bottom*%
X257881791Y-141891341D03*
D13*
X259968190Y-141332289D03*
%TD*%
D14*
%TO.P,D16,1*%
%TO.N,P0*%
X287381166Y-133987008D03*
D15*
X289467565Y-133427956D03*
%TO.P,D16,2*%
%TO.N,mirror_pinky_bottom*%
X292655121Y-132573856D03*
D13*
X294741520Y-132014804D03*
%TD*%
D16*
%TO.P,D14,1*%
%TO.N,P10*%
X128821718Y-187631708D03*
D17*
X130779343Y-188544564D03*
%TO.P,D14,2*%
%TO.N,home_thumb*%
X133770159Y-189939204D03*
D13*
X135727784Y-190852060D03*
%TD*%
%TO.P,D1,2*%
%TO.N,pinky_bottom*%
X62153330Y-133987008D03*
D12*
X60066931Y-133427956D03*
%TO.P,D1,1*%
%TO.N,P20*%
X56879375Y-132573856D03*
D11*
X54792976Y-132014804D03*
%TD*%
D14*
%TO.P,D18,1*%
%TO.N,P0*%
X269994501Y-138645750D03*
D15*
X272080900Y-138086698D03*
%TO.P,D18,2*%
%TO.N,mirror_ring_bottom*%
X275268456Y-137232598D03*
D13*
X277354855Y-136673546D03*
%TD*%
D14*
%TO.P,D21,1*%
%TO.N,P1*%
X248207912Y-126883754D03*
D15*
X250294311Y-126324702D03*
%TO.P,D21,2*%
%TO.N,mirror_better_top*%
X253481867Y-125470602D03*
D13*
X255568266Y-124911550D03*
%TD*%
D11*
%TO.P,D12,1*%
%TO.N,P21*%
X146126224Y-138887779D03*
D12*
X148212623Y-139446831D03*
%TO.P,D12,2*%
%TO.N,inner_top*%
X151400179Y-140300931D03*
D13*
X153486578Y-140859983D03*
%TD*%
D14*
%TO.P,D27,1*%
%TO.N,P1*%
X196047918Y-140859983D03*
D15*
X198134317Y-140300931D03*
%TO.P,D27,2*%
%TO.N,mirror_inner_top*%
X201321873Y-139446831D03*
D13*
X203408272Y-138887779D03*
%TD*%
D20*
%TO.P,MCU1,1*%
%TO.N,RAW*%
X167527270Y-153037123D03*
D21*
%TO.P,MCU1,2*%
%TO.N,GND*%
X167527270Y-155577123D03*
%TO.P,MCU1,3*%
%TO.N,RST*%
X167527270Y-158117123D03*
%TO.P,MCU1,4*%
%TO.N,VCC*%
X167527270Y-160657123D03*
%TO.P,MCU1,5*%
%TO.N,P21*%
X167527270Y-163197123D03*
%TO.P,MCU1,6*%
%TO.N,P20*%
X167527270Y-165737123D03*
%TO.P,MCU1,7*%
%TO.N,P19*%
X167527270Y-168277123D03*
%TO.P,MCU1,8*%
%TO.N,P18*%
X167527270Y-170817123D03*
%TO.P,MCU1,9*%
%TO.N,P15*%
X167527270Y-173357123D03*
%TO.P,MCU1,10*%
%TO.N,P14*%
X167527270Y-175897123D03*
%TO.P,MCU1,11*%
%TO.N,P16*%
X167527270Y-178437123D03*
%TO.P,MCU1,12*%
%TO.N,P10*%
X167527270Y-180977123D03*
%TO.P,MCU1,13*%
%TO.N,P1*%
X182767270Y-153037123D03*
%TO.P,MCU1,14*%
%TO.N,P0*%
X182767270Y-155577123D03*
%TO.P,MCU1,15*%
%TO.N,GND*%
X182767270Y-158117123D03*
%TO.P,MCU1,16*%
X182767270Y-160657123D03*
%TO.P,MCU1,17*%
%TO.N,P2*%
X182767270Y-163197123D03*
%TO.P,MCU1,18*%
%TO.N,P3*%
X182767270Y-165737123D03*
%TO.P,MCU1,19*%
%TO.N,P4*%
X182767270Y-168277123D03*
%TO.P,MCU1,20*%
%TO.N,P5*%
X182767270Y-170817123D03*
%TO.P,MCU1,21*%
%TO.N,P6*%
X182767270Y-173357123D03*
%TO.P,MCU1,22*%
%TO.N,P7*%
X182767270Y-175897123D03*
%TO.P,MCU1,23*%
%TO.N,P8*%
X182767270Y-178437123D03*
%TO.P,MCU1,24*%
%TO.N,P9*%
X182767270Y-180977123D03*
%TD*%
D14*
%TO.P,D26,1*%
%TO.N,P0*%
X200447841Y-157280722D03*
D15*
X202534240Y-156721670D03*
%TO.P,D26,2*%
%TO.N,mirror_inner_bottom*%
X205721796Y-155867570D03*
D13*
X207808195Y-155308518D03*
%TD*%
D11*
%TO.P,D4,1*%
%TO.N,P21*%
X76579564Y-120252807D03*
D12*
X78665963Y-120811859D03*
%TO.P,D4,2*%
%TO.N,ring_top*%
X81853519Y-121665959D03*
D13*
X83939918Y-122225011D03*
%TD*%
D14*
%TO.P,D17,1*%
%TO.N,P1*%
X282981242Y-117566268D03*
D15*
X285067641Y-117007216D03*
%TO.P,D17,2*%
%TO.N,mirror_pinky_top*%
X288255197Y-116153116D03*
D13*
X290341596Y-115594064D03*
%TD*%
D11*
%TO.P,D2,1*%
%TO.N,P21*%
X59192899Y-115594064D03*
D12*
X61279298Y-116153116D03*
%TO.P,D2,2*%
%TO.N,pinky_top*%
X64466854Y-117007216D03*
D13*
X66553253Y-117566268D03*
%TD*%
D11*
%TO.P,D3,1*%
%TO.N,P20*%
X72179641Y-136673546D03*
D12*
X74266040Y-137232598D03*
%TO.P,D3,2*%
%TO.N,ring_bottom*%
X77453596Y-138086698D03*
D13*
X79539995Y-138645750D03*
%TD*%
D16*
%TO.P,D13,1*%
%TO.N,P10*%
X111601870Y-179601961D03*
D17*
X113559495Y-180514817D03*
%TO.P,D13,2*%
%TO.N,near_thumb*%
X116550311Y-181909457D03*
D13*
X118507936Y-182822313D03*
%TD*%
D14*
%TO.P,D19,1*%
%TO.N,P1*%
X265594577Y-122225011D03*
D15*
X267680976Y-121665959D03*
%TO.P,D19,2*%
%TO.N,mirror_ring_top*%
X270868532Y-120811859D03*
D13*
X272954931Y-120252807D03*
%TD*%
D14*
%TO.P,D23,1*%
%TO.N,P1*%
X230821247Y-131542497D03*
D15*
X232907646Y-130983445D03*
%TO.P,D23,2*%
%TO.N,mirror_middle_top*%
X236095202Y-130129345D03*
D13*
X238181601Y-129570293D03*
%TD*%
D11*
%TO.P,D10,1*%
%TO.N,P21*%
X128739559Y-134229036D03*
D12*
X130825958Y-134788088D03*
%TO.P,D10,2*%
%TO.N,index_top*%
X134013514Y-135642188D03*
D13*
X136099913Y-136201240D03*
%TD*%
D14*
%TO.P,D25,1*%
%TO.N,P1*%
X213434582Y-136201240D03*
D15*
X215520981Y-135642188D03*
%TO.P,D25,2*%
%TO.N,mirror_index_top*%
X218708537Y-134788088D03*
D13*
X220794936Y-134229036D03*
%TD*%
D18*
%TO.P,D30,1*%
%TO.N,P9*%
X196586863Y-198881807D03*
D19*
X198544488Y-197968951D03*
%TO.P,D30,2*%
%TO.N,mirror_far_thumb*%
X201535304Y-196574311D03*
D13*
X203492929Y-195661455D03*
%TD*%
D11*
%TO.P,D5,1*%
%TO.N,P20*%
X89566305Y-141332289D03*
D12*
X91652704Y-141891341D03*
%TO.P,D5,2*%
%TO.N,better_bottom*%
X94840260Y-142745441D03*
D13*
X96926659Y-143304493D03*
%TD*%
D14*
%TO.P,D22,1*%
%TO.N,P0*%
X235221171Y-147963236D03*
D15*
X237307570Y-147404184D03*
%TO.P,D22,2*%
%TO.N,mirror_middle_bottom*%
X240495126Y-146550084D03*
D13*
X242581525Y-145991032D03*
%TD*%
D11*
%TO.P,D6,1*%
%TO.N,P21*%
X93966229Y-124911550D03*
D12*
X96052628Y-125470602D03*
%TO.P,D6,2*%
%TO.N,better_top*%
X99240184Y-126324702D03*
D13*
X101326583Y-126883754D03*
%TD*%
D18*
%TO.P,D29,1*%
%TO.N,P9*%
X213806711Y-190852060D03*
D19*
X215764336Y-189939204D03*
%TO.P,D29,2*%
%TO.N,mirror_home_thumb*%
X218755152Y-188544564D03*
D13*
X220712777Y-187631708D03*
%TD*%
D11*
%TO.P,D9,1*%
%TO.N,P20*%
X124339635Y-150649775D03*
D12*
X126426034Y-151208827D03*
%TO.P,D9,2*%
%TO.N,index_bottom*%
X129613590Y-152062927D03*
D13*
X131699989Y-152621979D03*
%TD*%
D11*
%TO.P,D11,1*%
%TO.N,P20*%
X141726300Y-155308518D03*
D12*
X143812699Y-155867570D03*
%TO.P,D11,2*%
%TO.N,inner_bottom*%
X147000255Y-156721670D03*
D13*
X149086654Y-157280722D03*
%TD*%
D22*
%TO.N,mirror_inner_top*%
X201880925Y-138887779D02*
X203408272Y-138887779D01*
X201321873Y-139446831D02*
X201880925Y-138887779D01*
%TO.N,mirror_inner_bottom*%
X206280848Y-155308518D02*
X207808195Y-155308518D01*
X205721796Y-155867570D02*
X206280848Y-155308518D01*
%TO.N,mirror_index_top*%
X219267589Y-134229036D02*
X220794936Y-134229036D01*
X218708537Y-134788088D02*
X219267589Y-134229036D01*
%TO.N,mirror_index_bottom*%
X223667513Y-150649775D02*
X225194860Y-150649775D01*
X223108461Y-151208827D02*
X223667513Y-150649775D01*
%TO.N,mirror_middle_top*%
X236654254Y-129570293D02*
X238181601Y-129570293D01*
X236095202Y-130129345D02*
X236654254Y-129570293D01*
%TO.N,mirror_middle_bottom*%
X241054178Y-145991032D02*
X242581525Y-145991032D01*
X240495126Y-146550084D02*
X241054178Y-145991032D01*
%TO.N,mirror_better_top*%
X253481867Y-125470602D02*
X254040919Y-124911550D01*
X254040919Y-124911550D02*
X255568266Y-124911550D01*
%TO.N,mirror_better_bottom*%
X258440843Y-141332289D02*
X259968190Y-141332289D01*
X257881791Y-141891341D02*
X258440843Y-141332289D01*
%TO.N,mirror_ring_top*%
X271427584Y-120252807D02*
X272954931Y-120252807D01*
X270868532Y-120811859D02*
X271427584Y-120252807D01*
%TO.N,mirror_ring_bottom*%
X275827508Y-136673546D02*
X277354855Y-136673546D01*
X275268456Y-137232598D02*
X275827508Y-136673546D01*
%TO.N,mirror_pinky_top*%
X288814249Y-115594064D02*
X290341596Y-115594064D01*
X288255197Y-116153116D02*
X288814249Y-115594064D01*
%TO.N,mirror_pinky_bottom*%
X293214173Y-132014804D02*
X292655121Y-132573856D01*
X294741520Y-132014804D02*
X293214173Y-132014804D01*
%TO.N,better_top*%
X99799236Y-126883754D02*
X101326583Y-126883754D01*
X99240184Y-126324702D02*
X99799236Y-126883754D01*
%TO.N,middle_top*%
X117185901Y-131542497D02*
X118713248Y-131542497D01*
X116626849Y-130983445D02*
X117185901Y-131542497D01*
%TO.N,index_top*%
X134572566Y-136201240D02*
X136099913Y-136201240D01*
X134013514Y-135642188D02*
X134572566Y-136201240D01*
%TO.N,inner_top*%
X151959231Y-140859983D02*
X153486578Y-140859983D01*
X151400179Y-140300931D02*
X151959231Y-140859983D01*
%TO.N,inner_bottom*%
X147559307Y-157280722D02*
X149086654Y-157280722D01*
X147000255Y-156721670D02*
X147559307Y-157280722D01*
%TO.N,index_bottom*%
X129613590Y-152062927D02*
X130172642Y-152621979D01*
X130172642Y-152621979D02*
X131699989Y-152621979D01*
%TO.N,middle_bottom*%
X112785977Y-147963236D02*
X114313324Y-147963236D01*
X112226925Y-147404184D02*
X112785977Y-147963236D01*
%TO.N,better_bottom*%
X95399312Y-143304493D02*
X96926659Y-143304493D01*
X94840260Y-142745441D02*
X95399312Y-143304493D01*
%TO.N,ring_bottom*%
X78012648Y-138645750D02*
X79539995Y-138645750D01*
X77453596Y-138086698D02*
X78012648Y-138645750D01*
D23*
%TO.N,pinky_bottom*%
X60066931Y-133427957D02*
X61594280Y-133427957D01*
X61594280Y-133427957D02*
X62153330Y-133987007D01*
%TO.N,pinky_top*%
X65994203Y-117007217D02*
X66553253Y-117566267D01*
X64466854Y-117007217D02*
X65994203Y-117007217D01*
%TO.N,ring_top*%
X81853519Y-121665960D02*
X83380868Y-121665960D01*
X83380868Y-121665960D02*
X83939918Y-122225010D01*
%TO.N,near_thumb*%
X117595080Y-181909457D02*
X118507936Y-182822313D01*
X116550311Y-181909457D02*
X117595080Y-181909457D01*
%TO.N,home_thumb*%
X134814928Y-189939204D02*
X135727784Y-190852060D01*
X133770159Y-189939204D02*
X134814928Y-189939204D01*
%TO.N,far_thumb*%
X152034776Y-197968951D02*
X152947632Y-198881807D01*
X150990007Y-197968951D02*
X152034776Y-197968951D01*
%TO.N,mirror_near_thumb*%
X237019769Y-180514817D02*
X237932625Y-179601961D01*
X235975000Y-180514817D02*
X237019769Y-180514817D01*
%TO.N,mirror_home_thumb*%
X218755152Y-188544564D02*
X219799921Y-188544564D01*
X219799921Y-188544564D02*
X220712777Y-187631708D01*
%TO.N,mirror_far_thumb*%
X201535304Y-196574311D02*
X202580073Y-196574311D01*
X202580073Y-196574311D02*
X203492929Y-195661455D01*
%TO.N,P20*%
X89566305Y-141332290D02*
X78365733Y-141332290D01*
X142285350Y-155867569D02*
X141726300Y-155308519D01*
X106952970Y-145991033D02*
X95752397Y-145991033D01*
X124898685Y-151208826D02*
X124339635Y-150649776D01*
X126426034Y-151208826D02*
X124898685Y-151208826D01*
X124339635Y-150649776D02*
X113139062Y-150649776D01*
X72179641Y-136673547D02*
X60979067Y-136673547D01*
X109039369Y-146550083D02*
X107512020Y-146550083D01*
X143812699Y-155867569D02*
X142285350Y-155867569D01*
X78365733Y-141332290D02*
X74266040Y-137232597D01*
X91652704Y-141891340D02*
X90125355Y-141891340D01*
X72738691Y-137232597D02*
X72179641Y-136673547D01*
X60979067Y-136673547D02*
X56879375Y-132573855D01*
X55352026Y-132573855D02*
X54792976Y-132014805D01*
X74266040Y-137232597D02*
X72738691Y-137232597D01*
X90125355Y-141891340D02*
X89566305Y-141332290D01*
X95752397Y-145991033D02*
X91652704Y-141891340D01*
X113139062Y-150649776D02*
X109039369Y-146550083D01*
X107512020Y-146550083D02*
X106952970Y-145991033D01*
X167527270Y-165737123D02*
X153682253Y-165737123D01*
X130525727Y-155308519D02*
X126426034Y-151208826D01*
X56879375Y-132573855D02*
X55352026Y-132573855D01*
X141726300Y-155308519D02*
X130525727Y-155308519D01*
X153682253Y-165737123D02*
X143812699Y-155867569D01*
%TO.N,P21*%
X82765656Y-124911551D02*
X78665963Y-120811858D01*
X113439293Y-130129344D02*
X111911944Y-130129344D01*
X129298609Y-134788087D02*
X128739559Y-134229037D01*
X155950000Y-151619853D02*
X155950000Y-147184207D01*
X65378991Y-120252808D02*
X61279298Y-116153115D01*
X146126224Y-138887780D02*
X134925651Y-138887780D01*
X76579564Y-120252808D02*
X78106913Y-120252808D01*
X59751949Y-116153115D02*
X59192899Y-115594065D01*
X78106913Y-120252808D02*
X78665963Y-120811858D01*
X111911944Y-130129344D02*
X111352894Y-129570294D01*
X111352894Y-129570294D02*
X100152321Y-129570294D01*
X134925651Y-138887780D02*
X130825958Y-134788087D01*
X148212623Y-139446830D02*
X146685274Y-139446830D01*
X100152321Y-129570294D02*
X96052628Y-125470601D01*
X117538986Y-134229037D02*
X113439293Y-130129344D01*
X130825958Y-134788087D02*
X129298609Y-134788087D01*
X93966229Y-124911551D02*
X82765656Y-124911551D01*
X155950000Y-147184207D02*
X148212623Y-139446830D01*
X167527270Y-163197123D02*
X155950000Y-151619853D01*
X146685274Y-139446830D02*
X146126224Y-138887780D01*
X94525279Y-125470601D02*
X93966229Y-124911551D01*
X128739559Y-134229037D02*
X117538986Y-134229037D01*
X61279298Y-116153115D02*
X59751949Y-116153115D01*
X76579564Y-120252808D02*
X65378991Y-120252808D01*
X96052628Y-125470601D02*
X94525279Y-125470601D01*
%TO.N,P10*%
X150925689Y-196574311D02*
X147999191Y-196574311D01*
X167527270Y-180977123D02*
X165522877Y-180977123D01*
X130779343Y-188544564D02*
X129734574Y-188544564D01*
X120676386Y-187631708D02*
X113559495Y-180514817D01*
X128821718Y-187631708D02*
X120676386Y-187631708D01*
X165522877Y-180977123D02*
X153697190Y-192802810D01*
X137896234Y-195661455D02*
X130779343Y-188544564D01*
X146041566Y-195661455D02*
X137896234Y-195661455D01*
X112514726Y-180514817D02*
X111601870Y-179601961D01*
X153697190Y-193802810D02*
X150925689Y-196574311D01*
X146954422Y-196574311D02*
X146041566Y-195661455D01*
X153697190Y-192802810D02*
X153697190Y-193802810D01*
X129734574Y-188544564D02*
X128821718Y-187631708D01*
X113559495Y-180514817D02*
X112514726Y-180514817D01*
X147999191Y-196574311D02*
X146954422Y-196574311D01*
%TO.N,P0*%
X254135185Y-143304492D02*
X254694235Y-142745442D01*
X254694235Y-142745442D02*
X255184133Y-143235340D01*
X272570798Y-138576597D02*
X282791576Y-138576597D01*
X203024138Y-157211569D02*
X213244915Y-157211569D01*
X255184133Y-143235340D02*
X265404910Y-143235340D01*
X282791576Y-138576597D02*
X287381166Y-133987007D01*
X248018245Y-147894083D02*
X252607836Y-143304492D01*
X269994501Y-138645749D02*
X271521850Y-138645749D01*
X184470868Y-157280721D02*
X200447841Y-157280721D01*
X235221171Y-147963235D02*
X236748520Y-147963235D01*
X219361855Y-152621978D02*
X219920905Y-152062928D01*
X202534240Y-156721671D02*
X203024138Y-157211569D01*
X182767270Y-155577123D02*
X184470868Y-157280721D01*
X265404910Y-143235340D02*
X269994501Y-138645749D01*
X219920905Y-152062928D02*
X220410803Y-152552826D01*
X237797468Y-147894083D02*
X248018245Y-147894083D01*
X287381166Y-133987007D02*
X288908515Y-133987007D01*
X271521850Y-138645749D02*
X272080900Y-138086699D01*
X220410803Y-152552826D02*
X230631580Y-152552826D01*
X217834506Y-152621978D02*
X219361855Y-152621978D01*
X213244915Y-157211569D02*
X217834506Y-152621978D01*
X252607836Y-143304492D02*
X254135185Y-143304492D01*
X272080900Y-138086699D02*
X272570798Y-138576597D01*
X201975190Y-157280721D02*
X202534240Y-156721671D01*
X288908515Y-133987007D02*
X289467565Y-133427957D01*
X200447841Y-157280721D02*
X201975190Y-157280721D01*
X230631580Y-152552826D02*
X235221171Y-147963235D01*
X237307570Y-147404185D02*
X237797468Y-147894083D01*
X236748520Y-147963235D02*
X237307570Y-147404185D01*
%TO.N,P1*%
X282981242Y-117566267D02*
X284508591Y-117566267D01*
X250784209Y-126814601D02*
X261004986Y-126814601D01*
X284508591Y-117566267D02*
X285067641Y-117007217D01*
X226231656Y-136132087D02*
X230821247Y-131542496D01*
X196047918Y-140859982D02*
X197575267Y-140859982D01*
X268170874Y-122155858D02*
X278391651Y-122155858D01*
X230821247Y-131542496D02*
X232348596Y-131542496D01*
X213434582Y-136201239D02*
X214961931Y-136201239D01*
X243618321Y-131473344D02*
X248207912Y-126883753D01*
X208775839Y-140859982D02*
X213434582Y-136201239D01*
X182767270Y-153037123D02*
X194944411Y-140859982D01*
X261004986Y-126814601D02*
X265594577Y-122225010D01*
X250294311Y-126324703D02*
X250784209Y-126814601D01*
X233397544Y-131473344D02*
X243618321Y-131473344D01*
X197575267Y-140859982D02*
X198134317Y-140300932D01*
X216010879Y-136132087D02*
X226231656Y-136132087D01*
X215520981Y-135642189D02*
X216010879Y-136132087D01*
X249735261Y-126883753D02*
X250294311Y-126324703D01*
X278391651Y-122155858D02*
X282981242Y-117566267D01*
X232907646Y-130983446D02*
X233397544Y-131473344D01*
X248207912Y-126883753D02*
X249735261Y-126883753D01*
X214961931Y-136201239D02*
X215520981Y-135642189D01*
X197575267Y-140859982D02*
X208775839Y-140859982D01*
X267680976Y-121665960D02*
X268170874Y-122155858D01*
X194944411Y-140859982D02*
X196047918Y-140859982D01*
X265594577Y-122225010D02*
X267121926Y-122225010D01*
X232348596Y-131542496D02*
X232907646Y-130983446D01*
X267121926Y-122225010D02*
X267680976Y-121665960D01*
%TO.N,P9*%
X198544488Y-197968951D02*
X206689820Y-197968951D01*
X192838592Y-193838592D02*
X182767270Y-183767270D01*
X214851480Y-190852060D02*
X215764336Y-189939204D01*
X197631632Y-198881807D02*
X198544488Y-197968951D01*
X196586863Y-196975559D02*
X193449896Y-193838592D01*
X223909668Y-189939204D02*
X231026559Y-182822313D01*
X215764336Y-189939204D02*
X223909668Y-189939204D01*
X193449896Y-193838592D02*
X192838592Y-193838592D01*
X182767270Y-183767270D02*
X182767270Y-180977123D01*
X231026559Y-182822313D02*
X232071328Y-182822313D01*
X196586863Y-198881807D02*
X196586863Y-196975559D01*
X232071328Y-182822313D02*
X232984184Y-181909457D01*
X213806711Y-190852060D02*
X214851480Y-190852060D01*
X206689820Y-197968951D02*
X213806711Y-190852060D01*
X196586863Y-198881807D02*
X197631632Y-198881807D01*
%TO.N,GND*%
X163574494Y-151624347D02*
X167527270Y-155577123D01*
X167527270Y-155577123D02*
X180227270Y-155577123D01*
X180227270Y-155577123D02*
X182767270Y-158117123D01*
X182767270Y-158117123D02*
X182767270Y-160657123D01*
X165179172Y-145287097D02*
X165179172Y-149671159D01*
X165179172Y-149671159D02*
X163574494Y-151275837D01*
X163574494Y-151275837D02*
X163574494Y-151624347D01*
%TO.N,RST*%
X160000568Y-150318207D02*
X167527270Y-157844909D01*
X161605246Y-148713529D02*
X160000568Y-150318207D01*
X161605246Y-144329467D02*
X161605246Y-148713529D01*
X167527270Y-157844909D02*
X167527270Y-158117123D01*
%TD*%
M02*
