%TF.GenerationSoftware,KiCad,Pcbnew,8.0.1*%
%TF.CreationDate,2024-08-13T22:00:52-05:00*%
%TF.ProjectId,tonyverse,746f6e79-7665-4727-9365-2e6b69636164,v1.0.0*%
%TF.SameCoordinates,Original*%
%TF.FileFunction,Legend,Bot*%
%TF.FilePolarity,Positive*%
%FSLAX46Y46*%
G04 Gerber Fmt 4.6, Leading zero omitted, Abs format (unit mm)*
G04 Created by KiCad (PCBNEW 8.0.1) date 2024-08-13 22:00:52*
%MOMM*%
%LPD*%
G01*
G04 APERTURE LIST*
%ADD10C,0.100000*%
%ADD11R,1.752600X1.752600*%
%ADD12C,1.752600*%
G04 APERTURE END LIST*
D10*
%TO.C,D7*%
X109908703Y-146783020D02*
X110295073Y-146886547D01*
X110295073Y-146886547D02*
X110152722Y-147417808D01*
X110295073Y-146886547D02*
X110437423Y-146355288D01*
X110295073Y-146886547D02*
X110978156Y-146655468D01*
X110771101Y-147428209D02*
X110295073Y-146886547D01*
X110874628Y-147041839D02*
X111357591Y-147171248D01*
X110978156Y-146655468D02*
X110771101Y-147428209D01*
%TO.C,D8*%
X114308627Y-130362281D02*
X114694997Y-130465808D01*
X114694997Y-130465808D02*
X114552646Y-130997069D01*
X114694997Y-130465808D02*
X114837347Y-129934549D01*
X114694997Y-130465808D02*
X115378080Y-130234729D01*
X115171025Y-131007470D02*
X114694997Y-130465808D01*
X115274552Y-130621100D02*
X115757515Y-130750509D01*
X115378080Y-130234729D02*
X115171025Y-131007470D01*
%TO.C,D24*%
X220790239Y-151829991D02*
X221176609Y-151726464D01*
X221176609Y-151726464D02*
X221034258Y-151195203D01*
X221176609Y-151726464D02*
X221318959Y-152257723D01*
X221176609Y-151726464D02*
X221652637Y-151184802D01*
X221652637Y-151184802D02*
X221859692Y-151957543D01*
X221756164Y-151571172D02*
X222239127Y-151441763D01*
X221859692Y-151957543D02*
X221176609Y-151726464D01*
%TO.C,D15*%
X148814868Y-196954667D02*
X149177391Y-197123715D01*
X149177391Y-197123715D02*
X148944951Y-197622184D01*
X149177391Y-197123715D02*
X149409831Y-196625245D01*
X149177391Y-197123715D02*
X149890223Y-197014762D01*
X149552129Y-197739809D02*
X149177391Y-197123715D01*
X149721176Y-197377286D02*
X150174330Y-197588595D01*
X149890223Y-197014762D02*
X149552129Y-197739809D01*
%TO.C,D28*%
X233799861Y-181529101D02*
X234162384Y-181360053D01*
X234162384Y-181360053D02*
X233929944Y-180861584D01*
X234162384Y-181360053D02*
X234394824Y-181858523D01*
X234162384Y-181360053D02*
X234537122Y-180743959D01*
X234537122Y-180743959D02*
X234875216Y-181469006D01*
X234706169Y-181106482D02*
X235159323Y-180895173D01*
X234875216Y-181469006D02*
X234162384Y-181360053D01*
%TO.C,D20*%
X255563569Y-142512505D02*
X255949939Y-142408978D01*
X255949939Y-142408978D02*
X255807588Y-141877717D01*
X255949939Y-142408978D02*
X256092289Y-142940237D01*
X255949939Y-142408978D02*
X256425967Y-141867316D01*
X256425967Y-141867316D02*
X256633022Y-142640057D01*
X256529494Y-142253686D02*
X257012457Y-142124277D01*
X256633022Y-142640057D02*
X255949939Y-142408978D01*
%TO.C,D16*%
X290336899Y-133195020D02*
X290723269Y-133091493D01*
X290723269Y-133091493D02*
X290580918Y-132560232D01*
X290723269Y-133091493D02*
X290865619Y-133622752D01*
X290723269Y-133091493D02*
X291199297Y-132549831D01*
X291199297Y-132549831D02*
X291406352Y-133322572D01*
X291302824Y-132936201D02*
X291785787Y-132806792D01*
X291406352Y-133322572D02*
X290723269Y-133091493D01*
%TO.C,D14*%
X131595020Y-188924920D02*
X131957543Y-189093968D01*
X131957543Y-189093968D02*
X131725103Y-189592437D01*
X131957543Y-189093968D02*
X132189983Y-188595498D01*
X131957543Y-189093968D02*
X132670375Y-188985015D01*
X132332281Y-189710062D02*
X131957543Y-189093968D01*
X132501328Y-189347539D02*
X132954482Y-189558848D01*
X132670375Y-188985015D02*
X132332281Y-189710062D01*
%TO.C,D1*%
X58818162Y-132679240D02*
X58611107Y-133451981D01*
X58714634Y-133065611D02*
X59197597Y-133195020D01*
X58611107Y-133451981D02*
X58135079Y-132910319D01*
X58135079Y-132910319D02*
X58818162Y-132679240D01*
X58135079Y-132910319D02*
X58277429Y-132379060D01*
X58135079Y-132910319D02*
X57992728Y-133441580D01*
X57748709Y-132806792D02*
X58135079Y-132910319D01*
%TO.C,D18*%
X272950234Y-137853762D02*
X273336604Y-137750235D01*
X273336604Y-137750235D02*
X273194253Y-137218974D01*
X273336604Y-137750235D02*
X273478954Y-138281494D01*
X273336604Y-137750235D02*
X273812632Y-137208573D01*
X273812632Y-137208573D02*
X274019687Y-137981314D01*
X273916159Y-137594943D02*
X274399122Y-137465534D01*
X274019687Y-137981314D02*
X273336604Y-137750235D01*
%TO.C,D21*%
X251163645Y-126091766D02*
X251550015Y-125988239D01*
X251550015Y-125988239D02*
X251407664Y-125456978D01*
X251550015Y-125988239D02*
X251692365Y-126519498D01*
X251550015Y-125988239D02*
X252026043Y-125446577D01*
X252026043Y-125446577D02*
X252233098Y-126219318D01*
X252129570Y-125832947D02*
X252612533Y-125703538D01*
X252233098Y-126219318D02*
X251550015Y-125988239D01*
%TO.C,D12*%
X149081957Y-139679767D02*
X149468327Y-139783294D01*
X149468327Y-139783294D02*
X149325976Y-140314555D01*
X149468327Y-139783294D02*
X149610677Y-139252035D01*
X149468327Y-139783294D02*
X150151410Y-139552215D01*
X149944355Y-140324956D02*
X149468327Y-139783294D01*
X150047882Y-139938586D02*
X150530845Y-140067995D01*
X150151410Y-139552215D02*
X149944355Y-140324956D01*
%TO.C,D27*%
X199003651Y-140067995D02*
X199390021Y-139964468D01*
X199390021Y-139964468D02*
X199247670Y-139433207D01*
X199390021Y-139964468D02*
X199532371Y-140495727D01*
X199390021Y-139964468D02*
X199866049Y-139422806D01*
X199866049Y-139422806D02*
X200073104Y-140195547D01*
X199969576Y-139809176D02*
X200452539Y-139679767D01*
X200073104Y-140195547D02*
X199390021Y-139964468D01*
%TO.C,D26*%
X203403574Y-156488734D02*
X203789944Y-156385207D01*
X203789944Y-156385207D02*
X203647593Y-155853946D01*
X203789944Y-156385207D02*
X203932294Y-156916466D01*
X203789944Y-156385207D02*
X204265972Y-155843545D01*
X204265972Y-155843545D02*
X204473027Y-156616286D01*
X204369499Y-156229915D02*
X204852462Y-156100506D01*
X204473027Y-156616286D02*
X203789944Y-156385207D01*
%TO.C,D4*%
X79535297Y-121044795D02*
X79921667Y-121148322D01*
X79921667Y-121148322D02*
X79779316Y-121679583D01*
X79921667Y-121148322D02*
X80064017Y-120617063D01*
X79921667Y-121148322D02*
X80604750Y-120917243D01*
X80397695Y-121689984D02*
X79921667Y-121148322D01*
X80501222Y-121303614D02*
X80984185Y-121433023D01*
X80604750Y-120917243D02*
X80397695Y-121689984D01*
%TO.C,D17*%
X285936975Y-116774280D02*
X286323345Y-116670753D01*
X286323345Y-116670753D02*
X286180994Y-116139492D01*
X286323345Y-116670753D02*
X286465695Y-117202012D01*
X286323345Y-116670753D02*
X286799373Y-116129091D01*
X286799373Y-116129091D02*
X287006428Y-116901832D01*
X286902900Y-116515461D02*
X287385863Y-116386052D01*
X287006428Y-116901832D02*
X286323345Y-116670753D01*
%TO.C,D2*%
X62148632Y-116386052D02*
X62535002Y-116489579D01*
X62535002Y-116489579D02*
X62392651Y-117020840D01*
X62535002Y-116489579D02*
X62677352Y-115958320D01*
X62535002Y-116489579D02*
X63218085Y-116258500D01*
X63011030Y-117031241D02*
X62535002Y-116489579D01*
X63114557Y-116644871D02*
X63597520Y-116774280D01*
X63218085Y-116258500D02*
X63011030Y-117031241D01*
%TO.C,D3*%
X75135374Y-137465534D02*
X75521744Y-137569061D01*
X75521744Y-137569061D02*
X75379393Y-138100322D01*
X75521744Y-137569061D02*
X75664094Y-137037802D01*
X75521744Y-137569061D02*
X76204827Y-137337982D01*
X75997772Y-138110723D02*
X75521744Y-137569061D01*
X76101299Y-137724353D02*
X76584262Y-137853762D01*
X76204827Y-137337982D02*
X75997772Y-138110723D01*
%TO.C,D13*%
X114375172Y-180895173D02*
X114737695Y-181064221D01*
X114737695Y-181064221D02*
X114505255Y-181562690D01*
X114737695Y-181064221D02*
X114970135Y-180565751D01*
X114737695Y-181064221D02*
X115450527Y-180955268D01*
X115112433Y-181680315D02*
X114737695Y-181064221D01*
X115281480Y-181317792D02*
X115734634Y-181529101D01*
X115450527Y-180955268D02*
X115112433Y-181680315D01*
%TO.C,D19*%
X268550310Y-121433023D02*
X268936680Y-121329496D01*
X268936680Y-121329496D02*
X268794329Y-120798235D01*
X268936680Y-121329496D02*
X269079030Y-121860755D01*
X268936680Y-121329496D02*
X269412708Y-120787834D01*
X269412708Y-120787834D02*
X269619763Y-121560575D01*
X269516235Y-121174204D02*
X269999198Y-121044795D01*
X269619763Y-121560575D02*
X268936680Y-121329496D01*
%TO.C,D23*%
X233776980Y-130750509D02*
X234163350Y-130646982D01*
X234163350Y-130646982D02*
X234020999Y-130115721D01*
X234163350Y-130646982D02*
X234305700Y-131178241D01*
X234163350Y-130646982D02*
X234639378Y-130105320D01*
X234639378Y-130105320D02*
X234846433Y-130878061D01*
X234742905Y-130491690D02*
X235225868Y-130362281D01*
X234846433Y-130878061D02*
X234163350Y-130646982D01*
%TO.C,D10*%
X131695292Y-135021024D02*
X132081662Y-135124551D01*
X132081662Y-135124551D02*
X131939311Y-135655812D01*
X132081662Y-135124551D02*
X132224012Y-134593292D01*
X132081662Y-135124551D02*
X132764745Y-134893472D01*
X132557690Y-135666213D02*
X132081662Y-135124551D01*
X132661217Y-135279843D02*
X133144180Y-135409252D01*
X132764745Y-134893472D02*
X132557690Y-135666213D01*
%TO.C,D25*%
X216390315Y-135409252D02*
X216776685Y-135305725D01*
X216776685Y-135305725D02*
X216634334Y-134774464D01*
X216776685Y-135305725D02*
X216919035Y-135836984D01*
X216776685Y-135305725D02*
X217252713Y-134764063D01*
X217252713Y-134764063D02*
X217459768Y-135536804D01*
X217356240Y-135150433D02*
X217839203Y-135021024D01*
X217459768Y-135536804D02*
X216776685Y-135305725D01*
%TO.C,D30*%
X199360165Y-197588595D02*
X199722688Y-197419547D01*
X199722688Y-197419547D02*
X199490248Y-196921078D01*
X199722688Y-197419547D02*
X199955128Y-197918017D01*
X199722688Y-197419547D02*
X200097426Y-196803453D01*
X200097426Y-196803453D02*
X200435520Y-197528500D01*
X200266473Y-197165976D02*
X200719627Y-196954667D01*
X200435520Y-197528500D02*
X199722688Y-197419547D01*
%TO.C,D5*%
X92522038Y-142124277D02*
X92908408Y-142227804D01*
X92908408Y-142227804D02*
X92766057Y-142759065D01*
X92908408Y-142227804D02*
X93050758Y-141696545D01*
X92908408Y-142227804D02*
X93591491Y-141996725D01*
X93384436Y-142769466D02*
X92908408Y-142227804D01*
X93487963Y-142383096D02*
X93970926Y-142512505D01*
X93591491Y-141996725D02*
X93384436Y-142769466D01*
%TO.C,D22*%
X238176904Y-147171248D02*
X238563274Y-147067721D01*
X238563274Y-147067721D02*
X238420923Y-146536460D01*
X238563274Y-147067721D02*
X238705624Y-147598980D01*
X238563274Y-147067721D02*
X239039302Y-146526059D01*
X239039302Y-146526059D02*
X239246357Y-147298800D01*
X239142829Y-146912429D02*
X239625792Y-146783020D01*
X239246357Y-147298800D02*
X238563274Y-147067721D01*
%TO.C,D6*%
X96921962Y-125703538D02*
X97308332Y-125807065D01*
X97308332Y-125807065D02*
X97165981Y-126338326D01*
X97308332Y-125807065D02*
X97450682Y-125275806D01*
X97308332Y-125807065D02*
X97991415Y-125575986D01*
X97784360Y-126348727D02*
X97308332Y-125807065D01*
X97887887Y-125962357D02*
X98370850Y-126091766D01*
X97991415Y-125575986D02*
X97784360Y-126348727D01*
%TO.C,D29*%
X216580013Y-189558848D02*
X216942536Y-189389800D01*
X216942536Y-189389800D02*
X216710096Y-188891331D01*
X216942536Y-189389800D02*
X217174976Y-189888270D01*
X216942536Y-189389800D02*
X217317274Y-188773706D01*
X217317274Y-188773706D02*
X217655368Y-189498753D01*
X217486321Y-189136229D02*
X217939475Y-188924920D01*
X217655368Y-189498753D02*
X216942536Y-189389800D01*
%TO.C,D9*%
X127295368Y-151441763D02*
X127681738Y-151545290D01*
X127681738Y-151545290D02*
X127539387Y-152076551D01*
X127681738Y-151545290D02*
X127824088Y-151014031D01*
X127681738Y-151545290D02*
X128364821Y-151314211D01*
X128157766Y-152086952D02*
X127681738Y-151545290D01*
X128261293Y-151700582D02*
X128744256Y-151829991D01*
X128364821Y-151314211D02*
X128157766Y-152086952D01*
%TO.C,D11*%
X144682033Y-156100506D02*
X145068403Y-156204033D01*
X145068403Y-156204033D02*
X144926052Y-156735294D01*
X145068403Y-156204033D02*
X145210753Y-155672774D01*
X145068403Y-156204033D02*
X145751486Y-155972954D01*
X145544431Y-156745695D02*
X145068403Y-156204033D01*
X145647958Y-156359325D02*
X146130921Y-156488734D01*
X145751486Y-155972954D02*
X145544431Y-156745695D01*
%TD*%
D11*
%TO.C,MCU1*%
X167527270Y-153037123D03*
D12*
X167527270Y-155577123D03*
X167527270Y-158117123D03*
X167527270Y-160657123D03*
X167527270Y-163197123D03*
X167527270Y-165737123D03*
X167527270Y-168277123D03*
X167527270Y-170817123D03*
X167527270Y-173357123D03*
X167527270Y-175897123D03*
X167527270Y-178437123D03*
X167527270Y-180977123D03*
X182767270Y-153037123D03*
X182767270Y-155577123D03*
X182767270Y-158117123D03*
X182767270Y-160657123D03*
X182767270Y-163197123D03*
X182767270Y-165737123D03*
X182767270Y-168277123D03*
X182767270Y-170817123D03*
X182767270Y-173357123D03*
X182767270Y-175897123D03*
X182767270Y-178437123D03*
X182767270Y-180977123D03*
%TD*%
M02*
