%TF.GenerationSoftware,KiCad,Pcbnew,8.0.1*%
%TF.CreationDate,2024-08-13T22:00:52-05:00*%
%TF.ProjectId,tonyverse,746f6e79-7665-4727-9365-2e6b69636164,v1.0.0*%
%TF.SameCoordinates,Original*%
%TF.FileFunction,Paste,Top*%
%TF.FilePolarity,Positive*%
%FSLAX46Y46*%
G04 Gerber Fmt 4.6, Leading zero omitted, Abs format (unit mm)*
G04 Created by KiCad (PCBNEW 8.0.1) date 2024-08-13 22:00:52*
%MOMM*%
%LPD*%
G01*
G04 APERTURE LIST*
G04 Aperture macros list*
%AMRotRect*
0 Rectangle, with rotation*
0 The origin of the aperture is its center*
0 $1 length*
0 $2 width*
0 $3 Rotation angle, in degrees counterclockwise*
0 Add horizontal line*
21,1,$1,$2,0,0,$3*%
G04 Aperture macros list end*
%ADD10RotRect,1.800000X1.100000X255.000000*%
%ADD11RotRect,0.900000X1.200000X345.000000*%
%ADD12RotRect,0.900000X1.200000X15.000000*%
%ADD13RotRect,0.900000X1.200000X335.000000*%
%ADD14RotRect,0.900000X1.200000X25.000000*%
G04 APERTURE END LIST*
D10*
%TO.C,B1*%
X165179172Y-145287097D03*
X163574494Y-151275837D03*
X161605246Y-144329467D03*
X160000568Y-150318207D03*
%TD*%
D11*
%TO.C,D7*%
X109039369Y-146550084D03*
X112226925Y-147404184D03*
%TD*%
%TO.C,D8*%
X113439293Y-130129345D03*
X116626849Y-130983445D03*
%TD*%
D12*
%TO.C,D24*%
X219920905Y-152062927D03*
X223108461Y-151208827D03*
%TD*%
D13*
%TO.C,D15*%
X147999191Y-196574311D03*
X150990007Y-197968951D03*
%TD*%
D14*
%TO.C,D28*%
X232984184Y-181909457D03*
X235975000Y-180514817D03*
%TD*%
D12*
%TO.C,D20*%
X254694235Y-142745441D03*
X257881791Y-141891341D03*
%TD*%
%TO.C,D16*%
X289467565Y-133427956D03*
X292655121Y-132573856D03*
%TD*%
D13*
%TO.C,D14*%
X130779343Y-188544564D03*
X133770159Y-189939204D03*
%TD*%
D11*
%TO.C,D1*%
X60066931Y-133427956D03*
X56879375Y-132573856D03*
%TD*%
D12*
%TO.C,D18*%
X272080900Y-138086698D03*
X275268456Y-137232598D03*
%TD*%
%TO.C,D21*%
X250294311Y-126324702D03*
X253481867Y-125470602D03*
%TD*%
D11*
%TO.C,D12*%
X148212623Y-139446831D03*
X151400179Y-140300931D03*
%TD*%
D12*
%TO.C,D27*%
X198134317Y-140300931D03*
X201321873Y-139446831D03*
%TD*%
%TO.C,D26*%
X202534240Y-156721670D03*
X205721796Y-155867570D03*
%TD*%
D11*
%TO.C,D4*%
X78665963Y-120811859D03*
X81853519Y-121665959D03*
%TD*%
D12*
%TO.C,D17*%
X285067641Y-117007216D03*
X288255197Y-116153116D03*
%TD*%
D11*
%TO.C,D2*%
X61279298Y-116153116D03*
X64466854Y-117007216D03*
%TD*%
%TO.C,D3*%
X74266040Y-137232598D03*
X77453596Y-138086698D03*
%TD*%
D13*
%TO.C,D13*%
X113559495Y-180514817D03*
X116550311Y-181909457D03*
%TD*%
D12*
%TO.C,D19*%
X267680976Y-121665959D03*
X270868532Y-120811859D03*
%TD*%
%TO.C,D23*%
X232907646Y-130983445D03*
X236095202Y-130129345D03*
%TD*%
D11*
%TO.C,D10*%
X130825958Y-134788088D03*
X134013514Y-135642188D03*
%TD*%
D12*
%TO.C,D25*%
X215520981Y-135642188D03*
X218708537Y-134788088D03*
%TD*%
D14*
%TO.C,D30*%
X198544488Y-197968951D03*
X201535304Y-196574311D03*
%TD*%
D11*
%TO.C,D5*%
X91652704Y-141891341D03*
X94840260Y-142745441D03*
%TD*%
D12*
%TO.C,D22*%
X237307570Y-147404184D03*
X240495126Y-146550084D03*
%TD*%
D11*
%TO.C,D6*%
X96052628Y-125470602D03*
X99240184Y-126324702D03*
%TD*%
D14*
%TO.C,D29*%
X215764336Y-189939204D03*
X218755152Y-188544564D03*
%TD*%
D11*
%TO.C,D9*%
X126426034Y-151208827D03*
X129613590Y-152062927D03*
%TD*%
%TO.C,D11*%
X143812699Y-155867570D03*
X147000255Y-156721670D03*
%TD*%
M02*
